<svg width="67" height="54" viewBox="0 0 67 54" version="1.1" xmlns="http://www.w3.org/2000/svg" xmlns:xlink="http://www.w3.org/1999/xlink">
<title>icon_account_basic</title>
<desc>Created using Figma</desc>
<g id="Canvas" transform="translate(227 -8146)">
<g id="icon_account_basic">
<g id="Vector">
<use xlink:href="#path0_fill" transform="translate(-227 8146)" fill="#E9CB6B"/>
</g>
<g id="Vector">
<use xlink:href="#path1_fill" transform="translate(-220.9 8153.1)" fill="#E9CB6B"/>
</g>
<g id="Vector">
<use xlink:href="#path2_fill" transform="translate(-220.9 8169.1)" fill="#E9CB6B"/>
</g>
<g id="Vector">
<use xlink:href="#path3_fill" transform="translate(-210.9 8169.1)" fill="#E9CB6B"/>
</g>
<g id="Vector">
<use xlink:href="#path3_fill" transform="translate(-199.9 8169.1)" fill="#E9CB6B"/>
</g>
<g id="Vector">
<use xlink:href="#path4_fill" transform="translate(-189.9 8169.1)" fill="#E9CB6B"/>
</g>
</g>
</g>
<defs>
<path id="path0_fill" d="M 61.4 20L 51.3 20L 51.3 4.9C 51.2 2.2 49 0 46.3 0L 4.9 0.1C 2.2 0.1 0 2.3 0 5L 0.1 29.3C 0.1 32 2.3 34.2 5 34.2L 15 34.2L 15 48.4C 15 51.1 17.2 53.2 19.8 53.2L 61.3 53.2C 64 53.2 66.1 51 66.1 48.4L 66.1 24.9C 66.3 22.2 64.1 20 61.4 20ZM 5 32C 3.5 32 2.3 30.8 2.3 29.4L 2.3 5C 2.3 3.5 3.5 2.4 4.9 2.3L 46.3 2.2C 47.8 2.2 48.9 3.4 48.9 4.8L 49 29.3C 49 30.8 47.8 31.9 46.4 32L 5 32ZM 46.4 34.2C 49.1 34.2 51.3 32 51.3 29.3L 51.3 22.3L 61.5 22.3C 62.9 22.3 64.1 23.5 64.1 24.9L 64.1 37.2L 17.3 37.2L 17.3 34.3L 46.4 34.2ZM 61.4 51L 19.9 51C 18.5 51 17.3 49.8 17.3 48.4L 17.3 45.1L 64 45.1L 64 48.4C 64 49.8 62.8 51 61.4 51Z"/>
<path id="path1_fill" d="M 6.9 -9.53674e-08L 2.1 -9.53674e-08C 0.9 -9.53674e-08 -9.53674e-08 1 -9.53674e-08 2.1L -9.53674e-08 4.9C -9.53674e-08 6.1 1 7 2.1 7L 6.9 7C 8.1 7 9 6 9 4.9L 9 2.1C 9 1 8.1 -9.53674e-08 6.9 -9.53674e-08Z"/>
<path id="path2_fill" d="M 6.6 3.8147e-07L 1.5 3.8147e-07C 0.7 3.8147e-07 -9.53674e-08 0.7 -9.53674e-08 1.5L -9.53674e-08 1.6C -9.53674e-08 2.4 0.7 3.1 1.5 3.1L 6.6 3.1C 7.4 3.1 8.1 2.4 8.1 1.6L 8.1 1.5C 8 0.7 7.4 3.8147e-07 6.6 3.8147e-07Z"/>
<path id="path3_fill" d="M 6.6 3.8147e-07L 1.5 3.8147e-07C 0.7 3.8147e-07 3.8147e-07 0.7 3.8147e-07 1.5L 3.8147e-07 1.6C 3.8147e-07 2.4 0.7 3.1 1.5 3.1L 6.6 3.1C 7.4 3.1 8.1 2.4 8.1 1.6L 8.1 1.5C 8 0.7 7.4 3.8147e-07 6.6 3.8147e-07Z"/>
<path id="path4_fill" d="M 6.6 3.8147e-07L 1.5 3.8147e-07C 0.699998 3.8147e-07 -1.52588e-06 0.7 -1.52588e-06 1.5L -1.52588e-06 1.6C -1.52588e-06 2.4 0.699998 3.1 1.5 3.1L 6.6 3.1C 7.4 3.1 8.1 2.4 8.1 1.6L 8.1 1.5C 8 0.7 7.4 3.8147e-07 6.6 3.8147e-07Z"/>
</defs>
</svg>
