<svg width="67" height="58" viewBox="0 0 67 58" version="1.1" xmlns="http://www.w3.org/2000/svg" xmlns:xlink="http://www.w3.org/1999/xlink">
<title>icon_account_verified_plus</title>
<desc>Created using Figma</desc>
<g id="Canvas" transform="translate(-167 -8142)">
<g id="icon_account_verified_plus">
<use xlink:href="#path0_fill" transform="translate(167 8142)" fill="#E9CB6B"/>
</g>
</g>
<defs>
<path id="path0_fill" d="M 43.4 9.6L 43.4 6C 43.4 2.7 40.7 0 37.4 0L 29.5 0C 26.2 0 23.5 2.7 23.5 6L 23.5 9.6L 0 9.6L 0 57.3L 66.5 57.3L 66.5 9.6L 43.4 9.6ZM 26.5 6C 26.5 4.3 27.9 3 29.5 3L 37.4 3C 39.1 3 40.4 4.4 40.4 6L 40.4 9.6L 26.5 9.6L 26.5 6ZM 63.5 54.2L 3 54.2L 3 27.9C 6.4 29.2 14.8 31.9 26.4 32.7L 26.4 34C 26.4 36.1 28.1 37.9 30.3 37.9L 36.3 37.9C 38.4 37.9 40.2 36.2 40.2 34L 40.2 32.6C 47.4 32 55.3 30.5 63.6 27.6L 63.6 54.2L 63.5 54.2ZM 32.7 33C 34.5 33 36.3 32.9 38.1 32.8L 38.1 34C 38.1 35 37.3 35.9 36.2 35.9L 30.2 35.9C 29.2 35.9 28.3 35.1 28.3 34L 28.3 32.8C 29.8 33 31.2 33 32.7 33ZM 28.4 30.9L 28.4 28C 28.4 27 29.2 26.1 30.3 26.1L 36.3 26.1C 37.3 26.1 38.2 26.9 38.2 28L 38.2 30.8C 34.7 31 31.4 31 28.4 30.9ZM 63.5 25.6C 55.2 28.6 47.3 30.1 40.1 30.7L 40.1 28C 40.1 25.9 38.4 24.1 36.2 24.1L 30.2 24.1C 28.1 24.1 26.3 25.8 26.3 28L 26.3 30.7C 14.1 29.8 5.6 26.8 2.9 25.7L 2.9 12.6L 63.4 12.6L 63.4 25.6L 63.5 25.6Z"/>
</defs>
</svg>
