<svg width="18" height="18" viewBox="0 0 18 18" version="1.1" xmlns="http://www.w3.org/2000/svg" xmlns:xlink="http://www.w3.org/1999/xlink">
<title>activity-password</title>
<desc>Created using Figma</desc>
<g id="Canvas" transform="translate(164 -18007)">
<g id="activity-password">
<g id="Vector">
<use xlink:href="#path0_fill" transform="translate(-156.9 18011.5)" fill="#E9CB6B"/>
</g>
<g id="Vector">
<use xlink:href="#path1_fill" transform="translate(-156.8 18014.1)" fill="#E9CB6B"/>
</g>
<g id="Vector">
<use xlink:href="#path2_stroke" transform="translate(-163 18008)" fill="#E9CB6B"/>
</g>
</g>
</g>
<defs>
<path id="path0_fill" d="M 1.9 3.8C 2.94934 3.8 3.8 2.94934 3.8 1.9C 3.8 0.850659 2.94934 0 1.9 0C 0.850659 0 0 0.850659 0 1.9C 0 2.94934 0.850659 3.8 1.9 3.8Z"/>
<path id="path1_fill" d="M 3.6 6.4L 9.53674e-08 6.4L 1 1.90735e-07L 2.6 1.90735e-07L 3.6 6.4Z"/>
<path id="path2_stroke" d="M 15.3 8C 15.3 12.0317 12.0317 15.3 8 15.3L 8 16.7C 12.8049 16.7 16.7 12.8049 16.7 8L 15.3 8ZM 8 15.3C 3.96832 15.3 0.7 12.0317 0.7 8L -0.7 8C -0.7 12.8049 3.19512 16.7 8 16.7L 8 15.3ZM 0.7 8C 0.7 3.96832 3.96832 0.7 8 0.7L 8 -0.7C 3.19512 -0.7 -0.7 3.19512 -0.7 8L 0.7 8ZM 8 0.7C 12.0317 0.7 15.3 3.96832 15.3 8L 16.7 8C 16.7 3.19512 12.8049 -0.7 8 -0.7L 8 0.7Z"/>
</defs>
</svg>
