<svg width="24" height="25" viewBox="0 0 24 25" version="1.1" xmlns="http://www.w3.org/2000/svg" xmlns:xlink="http://www.w3.org/1999/xlink">
<title>icon_calendar</title>
<desc>Created using Figma</desc>
<g id="Canvas" transform="translate(-350 -1076)">
<g id="icon_calendar">
<g id="Vector">
<use xlink:href="#path0_fill" transform="translate(350 1077.8)" fill="#FFFFFF"/>
</g>
<g id="Vector">
<use xlink:href="#path1_fill" transform="translate(367.789 1076.01)" fill="#FFFFFF"/>
</g>
<g id="Vector">
<use xlink:href="#path2_fill" transform="translate(355.338 1076)" fill="#FFFFFF"/>
</g>
<g id="Vector">
<use xlink:href="#path3_fill" transform="translate(361.56 1076.01)" fill="#FFFFFF"/>
</g>
<g id="Vector">
<use xlink:href="#path4_fill" transform="translate(353.545 1090.29)" fill="#FFFFFF"/>
</g>
<g id="Vector">
<use xlink:href="#path5_fill" transform="translate(362.449 1093.86)" fill="#FFFFFF"/>
</g>
<g id="Vector">
<use xlink:href="#path6_fill" transform="translate(362.443 1090.29)" fill="#FFFFFF"/>
</g>
<g id="Vector">
<use xlink:href="#path7_fill" transform="translate(362.442 1086.72)" fill="#FFFFFF"/>
</g>
<g id="Vector">
<use xlink:href="#path8_fill" transform="translate(353.552 1093.86)" fill="#FFFFFF"/>
</g>
<g id="Vector">
<use xlink:href="#path9_fill" transform="translate(366.887 1086.72)" fill="#FFFFFF"/>
</g>
<g id="Vector">
<use xlink:href="#path10_fill" transform="translate(358.002 1086.73)" fill="#FFFFFF"/>
</g>
<g id="Vector">
<use xlink:href="#path11_fill" transform="translate(366.887 1090.29)" fill="#FFFFFF"/>
</g>
<g id="Vector">
<use xlink:href="#path12_fill" transform="translate(357.998 1090.3)" fill="#FFFFFF"/>
</g>
<g id="Vector">
<use xlink:href="#path13_fill" transform="translate(358.002 1093.86)" fill="#FFFFFF"/>
</g>
</g>
</g>
<defs>
<path id="path0_fill" d="M 4.42498 0.00201527C 4.42498 0.116299 4.42498 0.200954 4.42498 0.283493C 4.42287 0.700418 4.406 1.11734 4.42498 1.53215C 4.43763 1.79035 4.47981 2.05278 4.54939 2.30251C 4.75605 3.05594 5.48987 3.57022 6.23846 3.55964C 6.97228 3.54694 7.73352 3.04113 7.91698 2.20516C 7.97813 1.9258 8.00344 1.63374 8.01398 1.34591C 8.02874 0.994594 8.01187 0.64116 8.00976 0.287726C 8.00976 0.205187 8.00976 0.120532 8.00976 0.0422264C 8.18478 -0.00433382 10.3778 -0.017032 10.6583 0.0295282C 10.6583 0.0993685 10.6583 0.173441 10.6583 0.249631C 10.6583 0.708884 10.652 1.16602 10.6604 1.62527C 10.6688 2.10992 10.7996 2.56071 11.118 2.93531C 11.5439 3.43477 12.0901 3.65487 12.7375 3.52578C 13.3785 3.39879 13.8466 3.03054 14.0849 2.4041C 14.1988 2.10357 14.2388 1.78823 14.2452 1.47078C 14.2536 1.08348 14.2431 0.694069 14.241 0.306773C 14.241 0.215769 14.241 0.126881 14.241 0.0422264C 14.416 -0.00645019 16.628 -0.0170321 16.8895 0.0316445C 16.8895 0.101485 16.8895 0.175558 16.8895 0.251747C 16.8895 0.753328 16.8768 1.25279 16.8937 1.75437C 16.9169 2.46547 17.2332 3.01573 17.8616 3.35435C 18.8442 3.88133 20.0715 3.33107 20.3646 2.24749C 20.4574 1.90463 20.4764 1.5512 20.4806 1.19988C 20.4827 0.897241 20.4679 0.594599 20.4595 0.289842C 20.4574 0.207303 20.4595 0.122648 20.4595 0.0274117C 20.7357 -0.0170321 20.9951 0.0041317 21.2439 0.0718556C 22.6884 0.47185 23.6204 1.38189 23.9515 2.86758C 23.9895 3.03689 23.9979 3.21679 23.9979 3.39244C 24 8.85903 24 14.3256 24 19.7922C 24 20.7806 23.5719 21.5721 22.8845 22.2387C 22.4206 22.6874 21.8765 23.0049 21.2397 23.134C 21.0478 23.1742 20.8496 23.1996 20.6556 23.1996C 14.8925 23.2038 9.12948 23.2038 3.36642 23.2017C 2.46811 23.2017 1.71952 22.825 1.08481 22.2133C 0.507024 21.6567 0.123242 20.9858 0.0199155 20.1753C 0.00726328 20.0716 0.000937198 19.9636 0.000937198 19.8599C 0.000937198 14.3574 -0.0011715 8.85692 0.000937198 3.35435C 0.000937198 2.49933 0.355198 1.78188 0.91822 1.1639C 1.44961 0.581901 2.09065 0.179791 2.8772 0.0443427C 3.06909 0.0104808 3.26942 0.0104807 3.46552 0.00624795C 3.77339 -0.00221754 4.08126 0.00201527 4.42498 0.00201527ZM 1.7617 7.13631C 1.7617 7.25482 1.7617 7.34794 1.7617 7.43895C 1.7617 11.4177 1.7617 15.3965 1.7617 19.3753C 1.7617 19.4536 1.75959 19.5298 1.7617 19.6081C 1.787 20.4927 2.31207 21.153 3.17242 21.3541C 3.38961 21.4049 3.61735 21.4282 3.84087 21.4282C 9.28131 21.4324 14.7217 21.4324 20.1622 21.4303C 20.3372 21.4303 20.5143 21.4155 20.6872 21.3922C 21.4675 21.2821 22.0263 20.7594 22.1802 19.9869C 22.2203 19.7816 22.2371 19.5679 22.2371 19.3562C 22.2413 15.3626 22.2392 11.3712 22.2392 7.37757C 22.2392 7.30138 22.2329 7.22731 22.2287 7.13842C 15.4028 7.13631 8.59598 7.13631 1.7617 7.13631Z"/>
<path id="path1_fill" d="M 0.00556042 2.20793C 0.00556042 1.76349 0.0224297 1.31905 0.00134278 0.876729C -0.028179 0.26933 0.433625 -0.0142634 0.948146 0.00055122C 1.12528 0.00690034 1.29608 0.0513442 1.44369 0.15293C 1.65667 0.29896 1.76421 0.502131 1.76632 0.760329C 1.76843 1.12646 1.76843 1.49259 1.76843 1.85873C 1.76843 2.43015 1.77054 2.99945 1.76843 3.57087C 1.76632 4.11478 1.31506 4.51054 0.78156 4.42377C 0.631843 4.40049 0.480016 4.3497 0.347168 4.27774C 0.113103 4.14864 0.00556042 3.93277 0.00556042 3.66611C 0.00556042 3.18146 0.00556042 2.69469 0.00556042 2.20793Z"/>
<path id="path2_fill" d="M 0.00247015 2.24761C 0.00247015 1.79047 0.0109048 1.33122 0.000361328 0.87408C -0.00807345 0.535461 0.131101 0.287845 0.422101 0.129117C 0.734188 -0.042309 1.05471 -0.0486581 1.36258 0.143932C 1.62406 0.306892 1.76956 0.54181 1.76745 0.861382C 1.76534 1.79047 1.76956 2.71956 1.76534 3.65076C 1.76323 4.08673 1.49964 4.37244 1.06736 4.43805C 0.854383 4.47191 0.645622 4.45498 0.449514 4.36398C 0.171166 4.23488 0.00879618 4.02113 0.00668748 3.70579C 0.00247009 3.21902 0.00457885 2.73437 0.00247015 2.24761C 0.00457885 2.24761 0.00457885 2.24761 0.00247015 2.24761Z"/>
<path id="path3_fill" d="M 1.76381 2.22987C 1.76381 2.68701 1.74694 3.14626 1.76802 3.6034C 1.79122 4.09016 1.34207 4.45206 0.859176 4.45841C 0.393155 4.46476 0.00304564 4.069 0.000936941 3.59493C -0.00117175 2.69336 0.000936941 1.78967 0.000936941 0.888093C 0.000936941 0.517728 0.129568 0.227785 0.488046 0.0754063C 0.850742 -0.0769725 1.30411 0.00768241 1.56559 0.274345C 1.70687 0.418259 1.76802 0.591801 1.76381 0.79074C 1.76381 0.805555 1.76381 0.818253 1.76381 0.833068C 1.76381 1.29867 1.76381 1.76427 1.76381 2.22987Z"/>
<path id="path4_fill" d="M 1.80791 0.00948803C 2.11789 0.00948803 2.42576 0.00737166 2.73574 0.00948803C 3.13639 0.0137208 3.381 0.195729 3.48854 0.585142C 3.53282 0.745986 3.55813 0.917413 3.56445 1.08461C 3.575 1.33857 3.55813 1.59254 3.56024 1.8465C 3.56656 2.27189 3.07102 2.69305 2.70411 2.67612C 2.09469 2.65072 1.48106 2.66977 0.87165 2.66765C 0.422498 2.66554 0.179998 2.48141 0.0682369 2.04544C 0.0302804 1.89729 0.00919364 1.74068 0.00286756 1.58619C -0.00556723 1.33222 0.00708501 1.07826 0.00919371 0.824291C 0.0113024 0.35234 0.494194 -0.0391883 0.861107 0.00313917C 1.02137 0.0200701 1.18374 0.00525632 1.34611 0.00525632C 1.50004 0.00948906 1.65398 0.00948803 1.80791 0.00948803Z"/>
<path id="path5_fill" d="M 1.75194 2.66927C 1.44407 2.66927 1.13409 2.65446 0.826223 2.67351C 0.440332 2.69679 -0.00249377 2.30737 0.00172362 1.85447C 0.00383232 1.52432 -0.00460298 1.19205 0.0038318 0.861892C 0.0185927 0.362428 0.36442 0.0195757 0.864181 0.0089938C 1.38292 -0.00158807 1.90377 -0.00158781 2.42251 0.00264494C 2.57644 0.00264494 2.73248 0.0195749 2.8822 0.0492041C 3.21538 0.114812 3.43257 0.317984 3.51903 0.648139C 3.54855 0.762423 3.5612 0.885172 3.5612 1.00369C 3.56542 1.27882 3.54644 1.55394 3.55698 1.82696C 3.57174 2.2333 3.10994 2.71372 2.67977 2.67562C 2.3719 2.64811 2.06192 2.67139 1.75194 2.66927Z"/>
<path id="path6_fill" d="M 1.7976 0.00580316C 2.09915 0.00580316 2.40069 0.00368679 2.70434 0.00580316C 3.11343 0.0100359 3.42974 0.259768 3.52252 0.659763C 3.55204 0.788861 3.56469 0.924309 3.56891 1.05764C 3.57313 1.31161 3.55415 1.56557 3.56258 1.81953C 3.57734 2.26821 3.07126 2.69571 2.68747 2.67667C 2.09282 2.64704 1.49395 2.67032 0.897192 2.6682C 0.395322 2.6682 0.129626 2.4481 0.0431699 1.94863C 0.0157569 1.79626 0.00310473 1.64176 0.00099603 1.48726C -0.00322136 1.26928 0.00732186 1.05129 0.00732186 0.831188C 0.00521316 0.365586 0.483887 -0.0280578 0.852908 0.00157145C 1.165 0.0248515 1.4813 0.00580316 1.7976 0.00580316Z"/>
<path id="path7_fill" d="M 1.80139 0.00330952C 2.10294 0.00330952 2.40659 0.0160083 2.70813 0.00119366C 3.15939 -0.0220864 3.57902 0.409653 3.56215 0.86044C 3.5495 1.1779 3.5495 1.49535 3.56215 1.81281C 3.57902 2.24032 3.16994 2.67629 2.72289 2.67206C 2.21681 2.66782 1.71072 2.68264 1.20674 2.68052C 1.03804 2.68052 0.869349 2.65936 0.702762 2.63608C 0.363262 2.58528 0.112327 2.34825 0.0406311 2.01175C 0.0153267 1.889 0.00267406 1.7599 0.000565362 1.63503C -0.00365203 1.38107 0.017436 1.1271 0.00689248 0.873139C -0.0120858 0.426585 0.415978 -0.0263192 0.875674 0.00119366C 1.18354 0.0181246 1.49141 0.00330952 1.80139 0.00330952Z"/>
<path id="path8_fill" d="M 1.7709 2.67139C 1.45459 2.67139 1.13829 2.65869 0.824094 2.67562C 0.446638 2.69679 0.00592044 2.31796 0.00381175 1.87352C 0.00170305 1.5349 -0.0046229 1.19628 0.00592057 0.859776C 0.0227901 0.353963 0.36229 0.0195757 0.868377 0.0089938C 1.39555 -0.00158807 1.92062 -0.00158781 2.44779 0.00264494C 2.59329 0.00264494 2.74301 0.0195749 2.8864 0.0492041C 3.21957 0.116928 3.43677 0.3201 3.51901 0.65237C 3.54853 0.766654 3.56118 0.889405 3.56118 1.00792C 3.5654 1.28305 3.54642 1.55818 3.55696 1.83119C 3.57173 2.24177 3.1057 2.70737 2.69872 2.67774C 2.39086 2.65234 2.07877 2.67139 1.7709 2.67139Z"/>
<path id="path9_fill" d="M 1.80083 0.00448011C 2.10237 0.00448011 2.40602 0.000247363 2.70757 0.00448011C 3.20733 0.0108292 3.55315 0.362147 3.55526 0.857378C 3.55737 1.18118 3.55737 1.5071 3.55526 1.83091C 3.55104 2.27746 3.18835 2.66053 2.74552 2.66688C 2.11291 2.67534 1.4803 2.67323 0.847695 2.66688C 0.430173 2.66264 0.0822386 2.34942 0.0253038 1.93038C 0.00421688 1.76953 5.14818e-07 1.60657 5.14818e-07 1.44573C 5.14818e-07 1.24044 0.0295217 1.03515 0.0126522 0.831982C -0.0147609 0.46585 0.390108 -0.0124505 0.830826 0.000247751C 1.15556 0.012946 1.4782 0.00448011 1.80083 0.00448011Z"/>
<path id="path10_fill" d="M 1.78715 0.000940481C 2.08869 0.000940481 2.39023 -0.00117589 2.69389 0.000940481C 3.1831 0.00517323 3.54158 0.367073 3.54369 0.855955C 3.5458 1.17976 3.52682 1.50568 3.55002 1.82737C 3.57532 2.1935 3.17467 2.67392 2.71497 2.66757C 2.09713 2.6591 1.47928 2.66757 0.86143 2.66545C 0.42493 2.66334 0.0622348 2.36916 0.0242783 1.92896C -0.0115695 1.51626 -0.00313497 1.09722 0.0200607 0.684529C 0.0369302 0.386121 0.399626 -0.00117589 0.798169 0.000940481C 1.12713 0.00305685 1.45608 0.000940481 1.78715 0.000940481Z"/>
<path id="path11_fill" d="M 1.78226 2.66718C 1.47228 2.66718 1.16441 2.6693 0.854432 2.66718C 0.424258 2.66295 0.16278 2.47036 0.069997 2.04708C 0.0193883 1.8164 0.013062 1.57302 0.00251853 1.33387C -0.00591625 1.15186 0.00884487 0.967733 0.0172797 0.783608C 0.0341492 0.375149 0.405279 0.0090158 0.814366 0.00689943C 1.43854 0.00266668 2.06482 0.0217143 2.689 0.00055057C 3.16345 -0.0163804 3.50717 0.360333 3.5388 0.745513C 3.57254 1.15186 3.57676 1.56455 3.54091 1.96878C 3.50717 2.35396 3.03693 2.69258 2.72695 2.67141C 2.41487 2.65025 2.09856 2.66718 1.78226 2.66718Z"/>
<path id="path12_fill" d="M 1.79952 -5.16692e-07C 2.0863 -5.16692e-07 2.37519 -5.16692e-07 2.66197 -5.16692e-07C 3.14697 -5.16692e-07 3.48647 0.296292 3.5413 0.780941C 3.56449 0.981997 3.55606 1.1894 3.55606 1.39257C 3.55606 1.54072 3.53919 1.68887 3.54973 1.83701C 3.58136 2.22431 3.09004 2.67933 2.72102 2.66663C 2.1116 2.64547 1.50008 2.64547 0.890668 2.66663C 0.378255 2.68568 0.045081 2.27722 0.0197767 1.89627C -0.00763638 1.49628 -0.00552768 1.09417 0.0197767 0.694171C 0.0408636 0.342853 0.433081 0.0105816 0.789451 0.00423249C 1.12473 -0.00211663 1.46212 0.00211586 1.79952 -5.16692e-07C 1.79952 0.00211586 1.79952 -5.16692e-07 1.79952 -5.16692e-07Z"/>
<path id="path13_fill" d="M 1.77471 2.66991C 1.45841 2.66991 1.1421 2.65721 0.827906 2.67202C 0.38508 2.6953 -0.0261152 2.22547 0.00129781 1.83394C 0.0223848 1.51225 0.00340625 1.18633 0.00762364 0.862524C 0.0139497 0.375758 0.35345 0.0202078 0.83845 0.00962596C 1.3846 -0.00307227 1.93286 -0.00095564 2.48112 0.0032771C 2.6203 0.0032771 2.76158 0.0244411 2.89865 0.0498376C 3.23393 0.111212 3.48908 0.390574 3.53758 0.74824C 3.55656 0.887921 3.56078 1.02972 3.56078 1.1694C 3.56078 1.4022 3.53547 1.635 3.55023 1.86568C 3.56921 2.20642 3.12638 2.68895 2.74471 2.67202C 2.42208 2.65721 2.09734 2.66779 1.77471 2.66991C 1.77471 2.66779 1.77471 2.66779 1.77471 2.66991Z"/>
</defs>
</svg>
