<svg width="23" height="18" viewBox="0 0 23 18" version="1.1" xmlns="http://www.w3.org/2000/svg" xmlns:xlink="http://www.w3.org/1999/xlink">
<title>Group</title>
<desc>Created using Figma</desc>
<g id="Canvas" transform="translate(-103 -20630)">
<g id="Group">
<g id="Group">
<g id="Vector">
<use xlink:href="#path0_stroke" transform="translate(106.6 20631)" fill="#E9CB6B"/>
</g>
<g id="Vector">
<use xlink:href="#path1_stroke" transform="translate(104 20636.8)" fill="#E9CB6B"/>
</g>
</g>
<g id="Group">
<g id="Vector">
<use xlink:href="#path2_stroke" transform="translate(107.9 20638.8)" fill="#E9CB6B"/>
</g>
<g id="Vector">
<use xlink:href="#path3_stroke" transform="translate(119.6 20638.2)" fill="#E9CB6B"/>
</g>
</g>
</g>
</g>
<defs>
<path id="path0_stroke" d="M 15.4321 2.9453C 13.8487 0.57031 11.0382 -1 8 -1L 8 1C 10.3618 1 12.5513 2.22969 13.768 4.0547L 15.4321 2.9453ZM 8 -1C 3.04772 -1 -1 3.04772 -1 8L 1 8C 1 4.15228 4.15228 1 8 1L 8 -1Z"/>
<path id="path1_stroke" d="M 2.6 2.8L 1.86721 3.48045L 2.53587 4.20055L 3.26754 3.54457L 2.6 2.8ZM 4.83246 -0.54457L 1.93245 2.05543L 3.26754 3.54457L 6.16754 0.944569L 4.83246 -0.54457ZM 3.33279 2.11955L 0.732794 -0.680451L -0.732794 0.680451L 1.86721 3.48045L 3.33279 2.11955Z"/>
<path id="path2_stroke" d="M -0.83205 5.0547C 0.751276 7.42969 3.56181 9 6.6 9L 6.6 7C 4.23819 7 2.04872 5.77031 0.83205 3.9453L -0.83205 5.0547ZM 6.6 9C 11.5523 9 15.6 4.95228 15.6 0L 13.6 0C 13.6 3.84772 10.4477 7 6.6 7L 6.6 9Z"/>
<path id="path3_stroke" d="M 2.8 9.53674e-08L 3.54457 -0.667545L 2.86526 -1.42524L 2.11955 -0.732793L 2.8 9.53674e-08ZM 0.680452 3.33279L 3.48045 0.732794L 2.11955 -0.732793L -0.680451 1.86721L 0.680452 3.33279ZM 2.05543 0.667545L 4.65543 3.56755L 6.14457 2.23246L 3.54457 -0.667545L 2.05543 0.667545Z"/>
</defs>
</svg>
