<svg width="14" height="17" viewBox="0 0 14 17" version="1.1" xmlns="http://www.w3.org/2000/svg" xmlns:xlink="http://www.w3.org/1999/xlink">
<title>&#226;&#130;&#172;</title>
<desc>Created using Figma</desc>
<g id="Canvas" transform="translate(-416 -2386)">
<g id="&#226;&#130;&#172;">
<use xlink:href="#path0_fill" transform="translate(415 2379)" fill="#1C1C1C"/>
</g>
</g>
<defs>
<path id="path0_fill" d="M 9.46 23.264C 11.946 23.264 13.486 21.878 14.696 20.052L 13.442 19.172C 12.386 20.712 11.264 21.702 9.526 21.702C 7.348 21.702 5.698 20.14 5.038 17.786L 10.736 17.786L 10.736 16.4L 4.752 16.4C 4.73 16.048 4.708 15.696 4.708 15.3C 4.708 14.838 4.73 14.376 4.796 14.024L 10.736 14.024L 10.736 12.66L 5.082 12.66C 5.764 10.438 7.326 8.898 9.284 8.898C 11.154 8.898 12.232 9.756 13.332 11.296L 14.652 10.35C 13.486 8.612 11.946 7.336 9.35 7.336C 6.402 7.336 4.136 9.58 3.3 12.66L 1.232 12.66L 1.232 14.024L 3.058 14.024C 2.992 14.398 2.97 14.86 2.97 15.3C 2.97 15.718 2.97 16.048 3.014 16.4L 1.232 16.4L 1.232 17.786L 3.234 17.786C 4.004 21.042 6.336 23.264 9.46 23.264Z"/>
</defs>
</svg>
