<svg width="10" height="16" viewBox="0 0 10 16" version="1.1" xmlns="http://www.w3.org/2000/svg" xmlns:xlink="http://www.w3.org/1999/xlink">
<title>$</title>
<desc>Created using Figma</desc>
<g id="Canvas" transform="translate(2062 3491)">
<g id="$">
<use xlink:href="#path0_fill" transform="translate(-2063 -3499)" fill="#FFFFFF"/>
</g>
</g>
<defs>
<path id="path0_fill" d="M 5.256 23.764L 6.408 23.764L 6.408 22C 8.676 21.856 10.242 20.542 10.242 18.616C 10.242 16.762 9.09 15.718 6.354 15.088L 6.354 10.66C 7.308 10.822 8.208 11.218 9.072 11.956L 9.846 10.876C 8.802 10.066 7.758 9.562 6.408 9.436L 6.408 8.356L 5.256 8.356L 5.256 9.4C 3.042 9.508 1.476 10.858 1.476 12.712C 1.476 14.62 2.646 15.61 5.31 16.24L 5.31 20.74C 3.96 20.596 2.898 20.002 1.818 19.03L 1.008 20.11C 2.268 21.19 3.654 21.82 5.256 21.964L 5.256 23.764ZM 5.31 14.836C 3.33 14.332 2.862 13.666 2.862 12.658C 2.862 11.524 3.798 10.66 5.31 10.606L 5.31 14.836ZM 6.354 20.794L 6.354 16.492C 8.352 16.978 8.856 17.608 8.856 18.67C 8.856 19.876 7.884 20.722 6.354 20.794Z"/>
</defs>
</svg>
