<svg width="18" height="18" viewBox="0 0 18 18" version="1.1" xmlns="http://www.w3.org/2000/svg" xmlns:xlink="http://www.w3.org/1999/xlink">
<title>Group</title>
<desc>Created using Figma</desc>
<g id="Canvas" transform="translate(2254 3492)">
<g id="Group">
<g id="Group">
<g id="Vector">
<use xlink:href="#path0_fill" transform="translate(-2254 -3492)" fill="#FFFFFF"/>
</g>
</g>
<g id="Group">
<g id="Vector">
<use xlink:href="#path1_fill" transform="translate(-2244.41 -3484.56)" fill="#FFFFFF"/>
</g>
</g>
</g>
</g>
<defs>
<path id="path0_fill" d="M 9.00997 18C 4.04651 18 0 13.9624 0 8.99006C 0 4.01768 4.04651 0 9.00997 0C 11.103 0 13.1362 0.735912 14.7508 2.04862L 13.794 3.20221C 12.4585 2.0884 10.7442 1.49171 9.00997 1.49171C 4.86379 1.49171 1.49502 4.85304 1.49502 8.99006C 1.49502 13.1271 4.86379 16.5083 9.00997 16.5083C 11.9203 16.5083 14.5116 14.8575 15.7674 12.3116L 9.58804 12.3116L 9.58804 10.8199L 17.9003 10.8199L 17.5814 11.7945C 16.3654 15.4939 12.9369 18 9.00997 18Z"/>
<path id="path1_fill" d="M 8.41196 0L 0 0L 0 1.49171L 8.41196 1.49171L 8.41196 0Z"/>
</defs>
</svg>
