<svg width="20" height="20" viewBox="0 0 20 20" fill="none" xmlns="http://www.w3.org/2000/svg">
<path d="M11.1 16.4C8.49999 16.4 6.39999 14.3 6.39999 11.7C6.39999 9.1 8.49999 7 11.1 7C12.2 7 13.3 7.4 14.1 8.1L13.6 8.7C12.9 8.1 12 7.8 11.1 7.8C8.89999 7.8 7.19999 9.6 7.19999 11.7C7.19999 13.9 8.99999 15.6 11.1 15.6C12.6 15.6 14 14.7 14.6 13.4H11.4V12.6H15.8L15.6 13.1C15 15.1 13.2 16.4 11.1 16.4Z" fill="#E9CB6B"/>
<path d="M15.8 10.9004H11.4V11.7004H15.8V10.9004Z" fill="#E9CB6B"/>
<path d="M11.1 19.4C15.3526 19.4 18.8 15.9526 18.8 11.7C18.8 7.44741 15.3526 4 11.1 4C6.8474 4 3.39999 7.44741 3.39999 11.7C3.39999 15.9526 6.8474 19.4 11.1 19.4Z" stroke="#E9CB6B" stroke-width="1.1221" stroke-miterlimit="10"/>
<path d="M5.1 10.2C7.91665 10.2 10.2 7.91665 10.2 5.1C10.2 2.28335 7.91665 0 5.1 0C2.28335 0 0 2.28335 0 5.1C0 7.91665 2.28335 10.2 5.1 10.2Z" fill="#E9CB6B"/>
<path d="M5.9 3.10059H4.5V8.70059H5.9V3.10059Z" fill="white"/>
<path d="M6.11199 3.09346L5.12205 2.10352L1.79868 5.42689L2.78862 6.41683L6.11199 3.09346Z" fill="white"/>
<path d="M7.47022 6.30732L8.46016 5.31738L5.13679 1.99401L4.14685 2.98395L7.47022 6.30732Z" fill="white"/>
</svg>
