<svg width="18" height="18" viewBox="0 0 18 18" version="1.1" xmlns="http://www.w3.org/2000/svg" xmlns:xlink="http://www.w3.org/1999/xlink">
<title>Group 3</title>
<desc>Created using Figma</desc>
<g id="Canvas" transform="translate(-3499 -15383)">
<g id="Group 3">
<g id="Ellipse">
<use xlink:href="#path0_fill" transform="translate(3499 15383)" fill="#E9CB6B"/>
</g>
<g id="?">
<use xlink:href="#path1_fill" transform="translate(3503 15387)" fill="#1C1C1C"/>
</g>
</g>
</g>
<defs>
<path id="path0_fill" d="M 18 9C 18 13.9706 13.9706 18 9 18C 4.02944 18 0 13.9706 0 9C 0 4.02944 4.02944 0 9 0C 13.9706 0 18 4.02944 18 9Z"/>
<path id="path1_fill" d="M 4.11089 6.906L 5.24489 6.906L 5.38489 5.772C 6.93889 5.506 8.19889 4.708 8.19889 2.944C 8.19889 1.166 6.88289 0.0740001 4.92289 0.0740001C 3.41089 0.0740001 2.36089 0.704 1.54889 1.628L 2.59889 2.748C 3.27089 2.034 3.99889 1.642 4.88089 1.642C 5.88889 1.642 6.49089 2.188 6.49089 2.972C 6.49089 3.924 5.67889 4.498 3.90089 4.568L 3.83089 4.638L 4.11089 6.906ZM 3.70489 10L 5.58089 10L 5.58089 8.082L 3.70489 8.082L 3.70489 10Z"/>
</defs>
</svg>
