<svg width="136" height="64" viewBox="0 0 136 64" version="1.1" xmlns="http://www.w3.org/2000/svg" xmlns:xlink="http://www.w3.org/1999/xlink">
<title>Group</title>
<desc>Created using Figma</desc>
<g id="Canvas" transform="translate(488 -8933)">
<g id="Group">
<g id="Group">
<g id="Vector">
<use xlink:href="#path0_stroke" transform="translate(-487 8964.68)" fill="#333333"/>
</g>
<g id="Vector">
<use xlink:href="#path1_stroke" transform="translate(-483.173 8980.02)" fill="#333333"/>
</g>
<g id="Vector">
<use xlink:href="#path2_stroke" transform="translate(-483.173 8968.51)" fill="#333333"/>
</g>
<g id="Vector">
<use xlink:href="#path2_stroke" transform="translate(-469.779 8968.51)" fill="#333333"/>
</g>
<g id="Vector">
<use xlink:href="#path2_stroke" transform="translate(-469.779 8980.02)" fill="#333333"/>
</g>
<g id="Group">
<g id="Vector">
<use xlink:href="#path3_stroke" transform="translate(-368.561 8970.43)" fill="#333333"/>
</g>
<g id="Vector">
<use xlink:href="#path4_stroke" transform="translate(-382.529 8970.43)" fill="#333333"/>
</g>
<g id="Vector">
<use xlink:href="#path5_stroke" transform="translate(-397.071 8970.43)" fill="#333333"/>
</g>
<g id="Vector">
<use xlink:href="#path6_stroke" transform="translate(-397.071 8965.06)" fill="#333333"/>
</g>
<g id="Vector">
<use xlink:href="#path6_stroke" transform="translate(-397.071 8989.99)" fill="#333333"/>
</g>
<g id="Vector">
<use xlink:href="#path7_stroke" transform="translate(-397.071 8957.97)" fill="#333333"/>
</g>
</g>
<g id="Vector">
<use xlink:href="#path8_stroke" transform="translate(-454.472 8949.34)" fill="#333333"/>
</g>
<g id="Vector">
<use xlink:href="#path9_stroke" transform="translate(-448.732 8955.09)" fill="#333333"/>
</g>
<g id="Vector">
<use xlink:href="#path10_stroke" transform="translate(-441.079 8968.51)" fill="#333333"/>
</g>
<g id="Vector">
<use xlink:href="#path11_stroke" transform="translate(-405.681 8960.65)" fill="#333333"/>
</g>
<g id="Vector">
<use xlink:href="#path11_stroke" transform="translate(-405.681 8977.91)" fill="#333333"/>
</g>
<g id="Vector">
<use xlink:href="#path12_stroke" transform="translate(-463.465 8934)" fill="#333333"/>
</g>
<g id="Vector">
<use xlink:href="#path13_stroke" transform="translate(-451.985 8938.79)" fill="#333333"/>
</g>
</g>
</g>
</g>
<defs>
<path id="path0_stroke" d="M 0 0L 0 -1L -1 -1L -1 0L 0 0ZM 32.5276 0L 33.5276 0L 33.5276 -1L 32.5276 -1L 32.5276 0ZM 32.5276 30.6793L 32.5276 31.6793L 33.5276 31.6793L 33.5276 30.6793L 32.5276 30.6793ZM 0 30.6793L -1 30.6793L -1 31.6793L 0 31.6793L 0 30.6793ZM 0 1L 32.5276 1L 32.5276 -1L 0 -1L 0 1ZM 31.5276 0L 31.5276 30.6793L 33.5276 30.6793L 33.5276 0L 31.5276 0ZM 32.5276 29.6793L 0 29.6793L 0 31.6793L 32.5276 31.6793L 32.5276 29.6793ZM 1 30.6793L 1 0L -1 0L -1 30.6793L 1 30.6793Z"/>
<path id="path1_stroke" d="M 0 0L 0 -1L -1 -1L -1 0L 0 0ZM 9.56693 0L 10.5669 0L 10.5669 -1L 9.56693 -1L 9.56693 0ZM 9.56693 15.3396L 9.56693 16.3396L 10.5669 16.3396L 10.5669 15.3396L 9.56693 15.3396ZM 0 15.3396L -1 15.3396L -1 16.3396L 0 16.3396L 0 15.3396ZM 0 1L 9.56693 1L 9.56693 -1L 0 -1L 0 1ZM 8.56693 0L 8.56693 15.3396L 10.5669 15.3396L 10.5669 0L 8.56693 0ZM 9.56693 14.3396L 0 14.3396L 0 16.3396L 9.56693 16.3396L 9.56693 14.3396ZM 1 15.3396L 1 0L -1 0L -1 15.3396L 1 15.3396Z"/>
<path id="path2_stroke" d="M 0 0L 0 -1L -1 -1L -1 0L 0 0ZM 9.56693 0L 10.5669 0L 10.5669 -1L 9.56693 -1L 9.56693 0ZM 9.56693 7.66982L 9.56693 8.66982L 10.5669 8.66982L 10.5669 7.66982L 9.56693 7.66982ZM 0 7.66982L -1 7.66982L -1 8.66982L 0 8.66982L 0 7.66982ZM 0 1L 9.56693 1L 9.56693 -1L 0 -1L 0 1ZM 8.56693 0L 8.56693 7.66982L 10.5669 7.66982L 10.5669 0L 8.56693 0ZM 9.56693 6.66982L 0 6.66982L 0 8.66982L 9.56693 8.66982L 9.56693 6.66982ZM 1 7.66982L 1 0L -1 0L -1 7.66982L 1 7.66982Z"/>
<path id="path3_stroke" d="M 2.9196e-06 0L 2.9196e-06 -1L -0.999997 -1L -0.999997 0L 2.9196e-06 0ZM 4.78347 0L 5.78347 0L 5.78347 -1L 4.78347 -1L 4.78347 0ZM 4.78347 19.558L 4.78347 20.558L 5.78347 20.558L 5.78347 19.558L 4.78347 19.558ZM 2.9196e-06 19.558L -0.999997 19.558L -0.999997 20.558L 2.9196e-06 20.558L 2.9196e-06 19.558ZM 2.9196e-06 1L 4.78347 1L 4.78347 -1L 2.9196e-06 -1L 2.9196e-06 1ZM 3.78347 0L 3.78347 19.558L 5.78347 19.558L 5.78347 0L 3.78347 0ZM 4.78347 18.558L 2.9196e-06 18.558L 2.9196e-06 20.558L 4.78347 20.558L 4.78347 18.558ZM 1 19.558L 1 0L -0.999997 0L -0.999997 19.558L 1 19.558Z"/>
<path id="path4_stroke" d="M -2.9196e-06 0L -2.9196e-06 -1L -1 -1L -1 0L -2.9196e-06 0ZM 4.78346 0L 5.78346 0L 5.78346 -1L 4.78346 -1L 4.78346 0ZM 4.78346 19.558L 4.78346 20.558L 5.78346 20.558L 5.78346 19.558L 4.78346 19.558ZM -2.9196e-06 19.558L -1 19.558L -1 20.558L -2.9196e-06 20.558L -2.9196e-06 19.558ZM -2.9196e-06 1L 4.78346 1L 4.78346 -1L -2.9196e-06 -1L -2.9196e-06 1ZM 3.78346 0L 3.78346 19.558L 5.78346 19.558L 5.78346 0L 3.78346 0ZM 4.78346 18.558L -2.9196e-06 18.558L -2.9196e-06 20.558L 4.78346 20.558L 4.78346 18.558ZM 0.999997 19.558L 0.999997 0L -1 0L -1 19.558L 0.999997 19.558Z"/>
<path id="path5_stroke" d="M 0 0L 0 -1L -1 -1L -1 0L 0 0ZM 4.78347 0L 5.78347 0L 5.78347 -1L 4.78347 -1L 4.78347 0ZM 4.78347 19.558L 4.78347 20.558L 5.78347 20.558L 5.78347 19.558L 4.78347 19.558ZM 0 19.558L -1 19.558L -1 20.558L 0 20.558L 0 19.558ZM 0 1L 4.78347 1L 4.78347 -1L 0 -1L 0 1ZM 3.78347 0L 3.78347 19.558L 5.78347 19.558L 5.78347 0L 3.78347 0ZM 4.78347 18.558L 0 18.558L 0 20.558L 4.78347 20.558L 4.78347 18.558ZM 1 19.558L 1 0L -1 0L -1 19.558L 1 19.558Z"/>
<path id="path6_stroke" d="M 0 1.4629e-06L 0 -0.999999C -0.552285 -0.999999 -1 -0.552283 -1 1.4629e-06L 0 1.4629e-06ZM 37.5024 1.4629e-06L 38.5024 1.4629e-06C 38.5024 -0.552283 38.0547 -0.999999 37.5024 -0.999999L 37.5024 1.4629e-06ZM 37.5024 5.36887L 37.5024 6.36887C 38.0547 6.36887 38.5024 5.92116 38.5024 5.36887L 37.5024 5.36887ZM 0 5.36887L -1 5.36887C -1 5.92116 -0.552285 6.36887 2.22045e-16 6.36887L 0 5.36887ZM 0 1L 37.5024 1L 37.5024 -0.999999L 0 -0.999999L 0 1ZM 36.5024 1.4629e-06L 36.5024 5.36887L 38.5024 5.36887L 38.5024 1.4629e-06L 36.5024 1.4629e-06ZM 37.5024 4.36887L 0 4.36887L 0 6.36887L 37.5024 6.36887L 37.5024 4.36887ZM 1 5.36887L 1 1.4629e-06L -1 1.4629e-06L -1 5.36887L 1 5.36887Z"/>
<path id="path7_stroke" d="M 16.8378 0L 17.0921 -0.967119C 16.9257 -1.01088 16.7509 -1.01096 16.5844 -0.967369L 16.8378 0ZM 0 4.41015L -0.253373 3.44278C -0.693236 3.55799 -1 3.95545 -1 4.41015L 0 4.41015ZM 0 7.09459L -1 7.09459C -1 7.64687 -0.552285 8.09459 2.22045e-16 8.09459L 0 7.09459ZM 43.8166 7.09459L 43.8166 8.09459C 44.3193 8.09459 44.7439 7.72137 44.8083 7.22281C 44.8728 6.72424 44.5571 6.25532 44.0709 6.12747L 43.8166 7.09459ZM 16.5844 -0.967369L -0.253373 3.44278L 0.253373 5.37752L 17.0912 0.967369L 16.5844 -0.967369ZM -1 4.41015L -1 7.09459L 1 7.09459L 1 4.41015L -1 4.41015ZM 0 8.09459L 43.8166 8.09459L 43.8166 6.09459L 0 6.09459L 0 8.09459ZM 44.0709 6.12747L 17.0921 -0.967119L 16.5835 0.967119L 43.5622 8.06171L 44.0709 6.12747Z"/>
<path id="path8_stroke" d="M 0 0L 0 -1C -0.552285 -1 -1 -0.552285 -1 2.22045e-16L 0 0ZM 57.4016 0L 58.4016 0C 58.4016 -0.552285 57.9539 -1 57.4016 -1L 57.4016 0ZM 57.4016 46.0189L 57.4016 47.0189C 57.9539 47.0189 58.4016 46.5712 58.4016 46.0189L 57.4016 46.0189ZM 0 46.0189L -1 46.0189C -1 46.5712 -0.552285 47.0189 2.22045e-16 47.0189L 0 46.0189ZM 0 1L 57.4016 1L 57.4016 -1L 0 -1L 0 1ZM 56.4016 0L 56.4016 46.0189L 58.4016 46.0189L 58.4016 0L 56.4016 0ZM 57.4016 45.0189L 0 45.0189L 0 47.0189L 57.4016 47.0189L 57.4016 45.0189ZM 1 46.0189L 1 0L -1 0L -1 46.0189L 1 46.0189Z"/>
<path id="path9_stroke" d="M 0 0L 0 -1L -1 -1L -1 0L 0 0ZM 45.9213 0L 46.9213 0L 46.9213 -1L 45.9213 -1L 45.9213 0ZM 45.9213 34.5142L 45.9213 35.5142L 46.9213 35.5142L 46.9213 34.5142L 45.9213 34.5142ZM 0 34.5142L -1 34.5142L -1 35.5142L 0 35.5142L 0 34.5142ZM 0 1L 45.9213 1L 45.9213 -1L 0 -1L 0 1ZM 44.9213 0L 44.9213 34.5142L 46.9213 34.5142L 46.9213 0L 44.9213 0ZM 45.9213 33.5142L 0 33.5142L 0 35.5142L 45.9213 35.5142L 45.9213 33.5142ZM 1 34.5142L 1 0L -1 0L -1 34.5142L 1 34.5142Z"/>
<path id="path10_stroke" d="M 8.56693 4.79364C 8.56693 6.89081 6.87102 8.58728 4.78347 8.58728L 4.78347 10.5873C 7.97959 10.5873 10.5669 7.99137 10.5669 4.79364L 8.56693 4.79364ZM 4.78347 8.58728C 2.69592 8.58728 1 6.89081 1 4.79364L -1 4.79364C -1 7.99137 1.58734 10.5873 4.78347 10.5873L 4.78347 8.58728ZM 1 4.79364C 1 2.69647 2.69592 1 4.78347 1L 4.78347 -1C 1.58734 -1 -1 1.5959 -1 4.79364L 1 4.79364ZM 4.78347 1C 6.87102 1 8.56693 2.69647 8.56693 4.79364L 10.5669 4.79364C 10.5669 1.5959 7.97959 -1 4.78347 -1L 4.78347 1Z"/>
<path id="path11_stroke" d="M 2.87008 5.90284C 2.04354 5.90284 1 4.98183 1 3.45142L -1 3.45142C -1 5.75592 0.635205 7.90284 2.87008 7.90284L 2.87008 5.90284ZM 1 3.45142C 1 1.92101 2.04354 0.999999 2.87008 0.999999L 2.87008 -1C 0.635204 -1 -1 1.14692 -1 3.45142L 1 3.45142Z"/>
<path id="path12_stroke" d="M 38.0764 0L 38.4517 -0.926902C 38.2116 -1.02414 37.943 -1.02437 37.7027 -0.927558L 38.0764 0ZM 3.6495e-07 15.3396L -0.37368 14.4121C -0.817891 14.591 -1.07287 15.0598 -0.981722 15.53C -0.890578 16.0001 -0.478903 16.3396 3.6495e-07 16.3396L 3.6495e-07 15.3396ZM 75.9615 15.3396L 75.9615 16.3396C 76.44 16.3396 76.8515 16.0006 76.943 15.5308C 77.0345 15.0611 76.7804 14.5923 76.3368 14.4127L 75.9615 15.3396ZM 37.7027 -0.927558L -0.37368 14.4121L 0.373681 16.2672L 38.4501 0.927558L 37.7027 -0.927558ZM 3.6495e-07 16.3396L 75.9615 16.3396L 75.9615 14.3396L 3.6495e-07 14.3396L 3.6495e-07 16.3396ZM 76.3368 14.4127L 38.4517 -0.926902L 37.7011 0.926902L 75.5862 16.2665L 76.3368 14.4127Z"/>
<path id="path13_stroke" d="M 26.2134 0L 26.589 -0.926782L 26.2148 -1.07845L 25.8402 -0.927735L 26.2134 0ZM 52.6111 9.61922L 26.589 -0.926782L 25.8378 0.926782L 51.8599 11.4728L 52.6111 9.61922ZM 25.8402 -0.927735L -0.373242 9.61827L 0.373239 11.4737L 26.5866 0.927735L 25.8402 -0.927735Z"/>
</defs>
</svg>
