<svg width="70" height="70" viewBox="0 0 70 70" version="1.1" xmlns="http://www.w3.org/2000/svg" xmlns:xlink="http://www.w3.org/1999/xlink">
<title>Group</title>
<desc>Created using Figma</desc>
<g id="Canvas" transform="translate(487 -9074)">
<g id="Group">
<g id="Group">
<g id="Group">
<g id="Vector">
<use xlink:href="#path0_stroke" transform="translate(-470.75 9074)" fill="#333333"/>
</g>
<g id="Vector">
<use xlink:href="#path0_stroke" transform="translate(-463.251 9074)" fill="#333333"/>
</g>
<g id="Vector">
<use xlink:href="#path0_stroke" transform="translate(-455.751 9074)" fill="#333333"/>
</g>
<g id="Vector">
<use xlink:href="#path1_stroke" transform="translate(-448.376 9074)" fill="#333333"/>
</g>
<g id="Vector">
<use xlink:href="#path2_stroke" transform="translate(-440.876 9074)" fill="#333333"/>
</g>
<g id="Vector">
<use xlink:href="#path3_stroke" transform="translate(-433.502 9074)" fill="#333333"/>
</g>
</g>
<g id="Group">
<g id="Vector">
<use xlink:href="#path4_stroke" transform="translate(-470.75 9133.98)" fill="#333333"/>
</g>
<g id="Vector">
<use xlink:href="#path4_stroke" transform="translate(-463.251 9133.98)" fill="#333333"/>
</g>
<g id="Vector">
<use xlink:href="#path4_stroke" transform="translate(-455.751 9133.98)" fill="#333333"/>
</g>
<g id="Vector">
<use xlink:href="#path5_stroke" transform="translate(-448.376 9133.98)" fill="#333333"/>
</g>
<g id="Vector">
<use xlink:href="#path6_stroke" transform="translate(-440.876 9133.98)" fill="#333333"/>
</g>
<g id="Vector">
<use xlink:href="#path7_stroke" transform="translate(-433.502 9133.98)" fill="#333333"/>
</g>
</g>
<g id="Group">
<g id="Vector">
<use xlink:href="#path8_stroke" transform="translate(-427.127 9090.28)" fill="#333333"/>
</g>
<g id="Vector">
<use xlink:href="#path8_stroke" transform="translate(-427.127 9097.79)" fill="#333333"/>
</g>
<g id="Vector">
<use xlink:href="#path8_stroke" transform="translate(-427.127 9105.3)" fill="#333333"/>
</g>
<g id="Vector">
<use xlink:href="#path9_stroke" transform="translate(-427.127 9112.69)" fill="#333333"/>
</g>
<g id="Vector">
<use xlink:href="#path10_stroke" transform="translate(-427.127 9120.21)" fill="#333333"/>
</g>
<g id="Vector">
<use xlink:href="#path11_stroke" transform="translate(-427.127 9127.59)" fill="#333333"/>
</g>
</g>
<g id="Group">
<g id="Vector">
<use xlink:href="#path12_stroke" transform="translate(-487 9090.28)" fill="#333333"/>
</g>
<g id="Vector">
<use xlink:href="#path12_stroke" transform="translate(-487 9097.79)" fill="#333333"/>
</g>
<g id="Vector">
<use xlink:href="#path12_stroke" transform="translate(-487 9105.3)" fill="#333333"/>
</g>
<g id="Vector">
<use xlink:href="#path13_stroke" transform="translate(-487 9112.69)" fill="#333333"/>
</g>
<g id="Vector">
<use xlink:href="#path14_stroke" transform="translate(-487 9120.21)" fill="#333333"/>
</g>
<g id="Vector">
<use xlink:href="#path15_stroke" transform="translate(-487 9127.59)" fill="#333333"/>
</g>
</g>
<g id="Vector">
<use xlink:href="#path16_stroke" transform="translate(-477.125 9084.02)" fill="#333333"/>
</g>
</g>
<g id="Group">
<g id="Vector">
<use xlink:href="#path17_fill" transform="translate(-465.001 9094.41)" fill="#333333"/>
</g>
</g>
<g id="Vector">
<use xlink:href="#path18_fill" transform="translate(-452.876 9089.28)" fill="#333333"/>
</g>
<g id="Vector">
<use xlink:href="#path19_fill" transform="translate(-452.876 9121.58)" fill="#333333"/>
</g>
</g>
</g>
<defs>
<path id="path0_stroke" d="M -1.1106 0L -1.1106 10.0177L 1.1106 10.0177L 1.1106 0L -1.1106 0Z"/>
<path id="path1_stroke" d="M -1.1106 0L -1.1106 10.0177L 1.1106 10.0177L 1.1106 0L -1.1106 0Z"/>
<path id="path2_stroke" d="M -1.1106 0L -1.1106 10.0177L 1.1106 10.0177L 1.1106 0L -1.1106 0Z"/>
<path id="path3_stroke" d="M -1.1106 0L -1.1106 10.0177L 1.1106 10.0177L 1.1106 0L -1.1106 0Z"/>
<path id="path4_stroke" d="M -1.1106 1.91073e-06L -1.1106 10.0177L 1.1106 10.0177L 1.1106 1.91073e-06L -1.1106 1.91073e-06Z"/>
<path id="path5_stroke" d="M -1.1106 1.91073e-06L -1.1106 10.0177L 1.1106 10.0177L 1.1106 1.91073e-06L -1.1106 1.91073e-06Z"/>
<path id="path6_stroke" d="M -1.1106 1.91073e-06L -1.1106 10.0177L 1.1106 10.0177L 1.1106 1.91073e-06L -1.1106 1.91073e-06Z"/>
<path id="path7_stroke" d="M -1.1106 1.91073e-06L -1.1106 10.0177L 1.1106 10.0177L 1.1106 1.91073e-06L -1.1106 1.91073e-06Z"/>
<path id="path8_stroke" d="M 9.99968 -1.1106L 1.90729e-06 -1.1106L 1.90729e-06 1.1106L 9.99968 1.1106L 9.99968 -1.1106Z"/>
<path id="path9_stroke" d="M 9.99968 -1.1106L 1.90729e-06 -1.1106L 1.90729e-06 1.1106L 9.99968 1.1106L 9.99968 -1.1106Z"/>
<path id="path10_stroke" d="M 9.99968 -1.1106L 1.90729e-06 -1.1106L 1.90729e-06 1.1106L 9.99968 1.1106L 9.99968 -1.1106Z"/>
<path id="path11_stroke" d="M 9.99968 -1.1106L 1.90729e-06 -1.1106L 1.90729e-06 1.1106L 9.99968 1.1106L 9.99968 -1.1106Z"/>
<path id="path12_stroke" d="M 9.99968 -1.1106L 0 -1.1106L 0 1.1106L 9.99968 1.1106L 9.99968 -1.1106Z"/>
<path id="path13_stroke" d="M 9.99968 -1.1106L 0 -1.1106L 0 1.1106L 9.99968 1.1106L 9.99968 -1.1106Z"/>
<path id="path14_stroke" d="M 9.99968 -1.1106L 0 -1.1106L 0 1.1106L 9.99968 1.1106L 9.99968 -1.1106Z"/>
<path id="path15_stroke" d="M 9.99968 -1.1106L 0 -1.1106L 0 1.1106L 9.99968 1.1106L 9.99968 -1.1106Z"/>
<path id="path16_stroke" d="M 1.19205e-07 0L 1.19205e-07 -1.1106L -1.1106 -1.1106L -1.1106 0L 1.19205e-07 0ZM 49.9984 0L 51.109 0L 51.109 -1.1106L 49.9984 -1.1106L 49.9984 0ZM 49.9984 50.0886L 49.9984 51.1992L 51.109 51.1992L 51.109 50.0886L 49.9984 50.0886ZM 1.19205e-07 50.0886L -1.1106 50.0886L -1.1106 51.1992L 1.19205e-07 51.1992L 1.19205e-07 50.0886ZM 1.19205e-07 1.1106L 49.9984 1.1106L 49.9984 -1.1106L 1.19205e-07 -1.1106L 1.19205e-07 1.1106ZM 48.8878 0L 48.8878 50.0886L 51.109 50.0886L 51.109 0L 48.8878 0ZM 49.9984 48.978L 1.19205e-07 48.978L 1.19205e-07 51.1992L 49.9984 51.1992L 49.9984 48.978ZM 1.1106 50.0886L 1.1106 0L -1.1106 0L -1.1106 50.0886L 1.1106 50.0886Z"/>
<path id="path17_fill" d="M 4.76822e-07 14.6509C 4.76822e-07 6.63674 5.99981 -9.55365e-07 14.3745 -9.55365e-07C 19.4994 -9.55365e-07 22.4993 1.87832 25.3742 4.6332L 23.2493 6.88719C 20.8743 4.6332 18.1244 3.00532 14.3745 3.00532C 8.12474 3.00532 3.37489 8.1394 3.37489 14.7761C 3.37489 21.4129 8.12474 26.547 14.3745 26.547C 18.2494 26.547 20.8743 25.0443 23.4993 22.4147L 25.6242 24.6686C 22.6243 27.674 19.3744 29.5523 14.2495 29.5523C 6.1248 29.4271 4.76822e-07 22.9155 4.76822e-07 14.6509Z"/>
<path id="path18_fill" d="M 3.49989 0L 0 0L 0 7.26285L 3.49989 7.26285L 3.49989 0Z"/>
<path id="path19_fill" d="M 3.49989 0L 0 0L 0 7.26285L 3.49989 7.26285L 3.49989 0Z"/>
</defs>
</svg>
