<svg width="74" height="61" viewBox="0 0 74 61" version="1.1" xmlns="http://www.w3.org/2000/svg" xmlns:xlink="http://www.w3.org/1999/xlink">
<title>Group</title>
<desc>Created using Figma</desc>
<g id="Canvas" transform="translate(489 -8787)">
<g id="Group">
<g id="Vector">
<use xlink:href="#path0_fill" transform="translate(-446.359 8830.77)" fill="#333333"/>
</g>
<g id="Vector">
<use xlink:href="#path1_stroke" transform="translate(-465.93 8813.78)" fill="#333333"/>
</g>
<g id="Vector">
<use xlink:href="#path2_stroke" transform="translate(-461.405 8796.92)" fill="#333333"/>
</g>
<g id="Vector">
<use xlink:href="#path3_fill" transform="translate(-447.937 8810.91)" fill="#333333"/>
</g>
<g id="Group">
<g id="Vector">
<use xlink:href="#path4_stroke" transform="translate(-487 8789)" fill="#333333"/>
</g>
<g id="Vector">
<use xlink:href="#path5_fill" transform="translate(-479.608 8819.09)" fill="#333333"/>
</g>
<g id="Vector">
<use xlink:href="#path6_fill" transform="translate(-467.981 8831.57)" fill="#333333"/>
</g>
<g id="Vector">
<use xlink:href="#path7_fill" transform="translate(-460.3 8823.71)" fill="#333333"/>
</g>
<g id="Vector">
<use xlink:href="#path8_fill" transform="translate(-452.304 8815.74)" fill="#333333"/>
</g>
<g id="Vector">
<use xlink:href="#path9_fill" transform="translate(-444.938 8808.2)" fill="#333333"/>
</g>
</g>
</g>
</g>
<defs>
<path id="path0_fill" d="M 29.3564 8.49821L 8.02767e-07 8.49821L 16.5196 1.6209e-06L 29.3564 1.6209e-06L 29.3564 8.49821Z"/>
<path id="path1_stroke" d="M 42.4038 -1.1189C 41.7858 -1.1189 41.2849 -0.617952 41.2849 -4.05226e-07C 41.2849 0.617951 41.7858 1.1189 42.4038 1.1189L 42.4038 -1.1189ZM 4.01383e-07 31.7054C -0.617951 31.7054 -1.1189 32.2064 -1.1189 32.8243C -1.1189 33.4423 -0.617951 33.9432 4.01383e-07 33.9432L 4.01383e-07 31.7054ZM 42.4038 1.1189L 45.0343 1.1189L 45.0343 -1.1189L 42.4038 -1.1189L 42.4038 1.1189ZM 45.0343 1.1189C 46.5964 1.1189 47.8085 2.39384 47.8085 3.93042L 50.0463 3.93042C 50.0463 1.2179 47.8914 -1.1189 45.0343 -1.1189L 45.0343 1.1189ZM 47.8085 3.93042L 47.8085 28.8939L 50.0463 28.8939L 50.0463 3.93042L 47.8085 3.93042ZM 47.8085 28.8939C 47.8085 30.4971 46.5304 31.7054 45.0343 31.7054L 45.0343 33.9432C 47.7469 33.9432 50.0463 31.7523 50.0463 28.8939L 47.8085 28.8939ZM 45.0343 31.7054L 4.01383e-07 31.7054L 4.01383e-07 33.9432L 45.0343 33.9432L 45.0343 31.7054Z"/>
<path id="path2_stroke" d="M 25.0424 0.394668L 25.5357 1.39903L 25.5466 1.39352L 25.0424 0.394668ZM 30.3034 2.20054L 31.3117 1.71531L 31.3061 1.70396L 30.3034 2.20054ZM 41.1411 24.7208L 40.1328 25.206L 40.1384 25.2174L 41.1411 24.7208ZM 39.3524 30.0322L 39.8458 31.0365L 39.8566 31.031L 39.3524 30.0322ZM 21.6425 3.31107L 25.5357 1.39897L 24.5492 -0.609639L 20.656 1.30246L 21.6425 3.31107ZM 25.5466 1.39352C 26.865 0.728015 28.619 1.32051 29.3008 2.69712L 31.3061 1.70396C 30.0939 -0.743628 27.0077 -1.85078 24.5382 -0.604187L 25.5466 1.39352ZM 29.2952 2.68574L 40.1329 25.206L 42.1493 24.2356L 31.3117 1.71534L 29.2952 2.68574ZM 40.1384 25.2174C 40.8077 26.5687 40.2034 28.3492 38.8482 29.0333L 39.8566 31.031C 42.2893 29.803 43.3685 26.697 42.1438 24.2242L 40.1384 25.2174ZM 38.859 29.0279L -0.493378 48.3613L 0.493377 50.3698L 39.8457 31.0364L 38.859 29.0279Z"/>
<path id="path3_fill" d="M 26.1998 7.64839L 8.02767e-07 20.5019L 17.8874 2.23078L 22.5171 8.10452e-07L 26.1998 7.64839Z"/>
<path id="path4_stroke" d="M 55.6878 25.0963L 54.9205 24.2819L 54.9051 24.2965L 54.8902 24.3116L 55.6878 25.0963ZM 24.9635 56.3272L 25.7584 57.1146L 25.7611 57.1119L 24.9635 56.3272ZM 19.3868 56.3272L 20.2084 55.5676L 20.1942 55.5523L 20.1795 55.5375L 19.3868 56.3272ZM 1.18373 38.056L 0.388782 38.8434L 0.391071 38.8457L 1.18373 38.056ZM 1.18373 32.426L 1.95105 33.2403L 1.96648 33.2258L 1.98135 33.2107L 1.18373 32.426ZM 31.908 1.19506L 31.1131 0.407653L 31.1104 0.410375L 31.908 1.19506ZM 37.4847 1.19506L 36.6631 1.95461L 36.6773 1.96996L 36.6921 1.98476L 37.4847 1.19506ZM 55.6878 19.4662L 56.4828 18.6788L 56.4805 18.6765L 55.6878 19.4662ZM 54.8902 24.3116L 24.1659 55.5425L 25.7611 57.1119L 56.4854 25.881L 54.8902 24.3116ZM 24.1686 55.5398C 23.0123 56.7071 21.2239 56.666 20.2084 55.5676L 18.5652 57.0867C 20.4959 59.1752 23.7581 59.1341 25.7584 57.1146L 24.1686 55.5398ZM 20.1795 55.5375L 1.97638 37.2663L 0.391071 38.8457L 18.5942 57.1169L 20.1795 55.5375ZM 1.97867 37.2686C 0.816791 36.0956 0.857034 34.2712 1.95105 33.2403L 0.416401 31.6116C -1.64619 33.5552 -1.60594 36.8296 0.388786 38.8434L 1.97867 37.2686ZM 1.98135 33.2107L 32.7057 1.97975L 31.1104 0.410375L 0.386103 31.6413L 1.98135 33.2107ZM 32.703 1.98246C 33.8592 0.815174 35.6477 0.8562 36.6631 1.95461L 38.3063 0.43551C 36.3756 -1.65291 33.1135 -1.61188 31.1131 0.407657L 32.703 1.98246ZM 36.6921 1.98476L 54.8952 20.2559L 56.4805 18.6765L 38.2774 0.405356L 36.6921 1.98476ZM 54.8929 20.2536C 56.0547 21.4266 56.0145 23.2511 54.9205 24.2819L 56.4551 25.9106C 58.5177 23.9671 58.4775 20.6926 56.4827 18.6788L 54.8929 20.2536Z"/>
<path id="path5_fill" d="M 9.46982 5.84252L 5.89233 9.45426C 5.05057 10.3041 3.57749 10.3041 2.73573 9.45426L 0.631321 7.43593C -0.210441 6.58611 -0.210441 5.09893 0.631321 4.24911L 4.20881 0.637366C 5.05057 -0.212455 6.52366 -0.212455 7.36542 0.637366L 9.46982 2.65569C 10.3116 3.61174 10.3116 4.9927 9.46982 5.84252Z"/>
<path id="path6_fill" d="M 6.47104 2.7088L 2.68312 6.533C 2.0518 7.17036 1.10481 7.17036 0.473492 6.533C -0.15783 5.89563 -0.15783 4.93958 0.473492 4.30222L 4.26142 0.478023C 4.89274 -0.159343 5.83972 -0.159343 6.47104 0.478023C 7.10237 1.11539 7.10237 2.07144 6.47104 2.7088Z"/>
<path id="path7_fill" d="M 6.47104 2.7088L 2.68312 6.533C 2.05179 7.17037 1.10481 7.17037 0.473491 6.533C -0.157831 5.89563 -0.157831 4.93958 0.473491 4.30222L 4.26142 0.478025C 4.89274 -0.159341 5.83972 -0.159341 6.47104 0.478025C 7.10237 1.11539 7.10237 2.17767 6.47104 2.7088Z"/>
<path id="path8_fill" d="M 6.47105 2.7088L 2.68311 6.533C 2.05179 7.17037 1.10481 7.17037 0.473491 6.533C -0.15783 5.89563 -0.15783 4.93958 0.473491 4.30222L 4.26142 0.478025C 4.89274 -0.159341 5.83972 -0.159341 6.47105 0.478025C 6.99715 1.11539 6.99715 2.07144 6.47105 2.7088Z"/>
<path id="path9_fill" d="M 6.47105 2.7088L 2.68311 6.533C 2.05179 7.17036 1.10481 7.17036 0.473491 6.533C -0.15783 5.89563 -0.15783 4.93958 0.473491 4.30222L 4.26142 0.478025C 4.89274 -0.159341 5.83972 -0.159341 6.47105 0.478025C 7.10237 1.11539 7.10237 2.17767 6.47105 2.7088Z"/>
</defs>
</svg>
