<svg width="17" height="34" viewBox="0 0 17 34" version="1.1" xmlns="http://www.w3.org/2000/svg" xmlns:xlink="http://www.w3.org/1999/xlink">
<title>Group</title>
<desc>Created using Figma</desc>
<g id="Canvas" transform="translate(-5898 -15657)">
<g id="Group">
<g id="Vector">
<use xlink:href="#path0_fill" transform="translate(5898 15657)" fill="#FFFFFF"/>
</g>
</g>
</g>
<defs>
<path id="path0_fill" d="M 10.613 34C 8.49044 34 6.40607 34 4.30259 34C 4.30259 28.7062 4.30259 23.4125 4.30259 18.1001C 2.84927 18.1001 1.4342 18.1001 0 18.1001C 0 16.1429 0 14.223 0 12.2844C 1.41507 12.2844 2.84927 12.2844 4.30259 12.2844C 4.30259 12.1539 4.30259 12.0421 4.30259 11.9489C 4.30259 10.4577 4.30259 8.94784 4.30259 7.45664C 4.30259 6.48736 4.43645 5.55536 4.79978 4.642C 5.71766 2.29336 7.51519 0.914 9.96288 0.31752C 11.1676 0.0192795 12.4106 -0.0366405 13.6535 0.0192795C 14.7053 0.0565595 15.757 0.14976 16.8088 0.22432C 16.847 0.22432 16.9044 0.24296 16.9809 0.24296C 16.9235 2.0324 16.8853 3.82184 16.8279 5.64856C 16.7132 5.64856 16.6175 5.64856 16.5219 5.64856C 15.3555 5.64856 14.1699 5.62992 13.0034 5.62992C 12.6974 5.62992 12.4106 5.6672 12.1046 5.72312C 11.225 5.89088 10.7852 6.35688 10.6704 7.23296C 10.6322 7.47528 10.613 7.73624 10.613 7.97856C 10.613 9.33928 10.613 10.7 10.613 12.0794C 10.613 12.1353 10.613 12.1912 10.613 12.2844C 12.7357 12.2844 14.8583 12.2844 17 12.2844C 16.9044 14.2416 16.8088 16.1429 16.7132 18.1001C 14.6862 18.1001 12.6592 18.1001 10.613 18.1001C 10.613 23.4125 10.613 28.6876 10.613 34Z"/>
</defs>
</svg>
