<svg width="38" height="37" viewBox="0 0 38 37" version="1.1" xmlns="http://www.w3.org/2000/svg" xmlns:xlink="http://www.w3.org/1999/xlink">
<title>Group</title>
<desc>Created using Figma</desc>
<g id="Canvas" transform="translate(-6067 -15658)">
<g id="Group">
<g id="Vector">
<use xlink:href="#path0_fill" transform="translate(6067 15658)" fill="#FFFFFF"/>
</g>
</g>
</g>
<defs>
<path id="path0_fill" d="M 37.9697 20.175C 37.818 21.1414 37.7573 22.1079 37.5146 23.0442C 35.8461 29.7188 31.8114 34.3397 25.3194 36.7861C 25.1981 36.8465 25.0767 36.8767 24.9554 36.9069C 24.1363 37.0579 23.7116 36.6955 23.6813 35.88C 23.6813 34.2189 23.6813 32.5578 23.6813 30.8967C 23.6813 30.0812 23.6206 29.2658 23.2566 28.5107C 23.0442 28.1181 22.7712 27.7255 22.5285 27.3631C 23.2566 27.212 24.015 27.1214 24.7734 26.91C 26.7149 26.4268 28.4137 25.5509 29.5665 23.8596C 30.4766 22.5307 30.871 20.9904 30.9923 19.3897C 31.144 17.8192 31.0833 16.2487 30.3553 14.799C 30.0822 14.2252 29.6879 13.7117 29.3238 13.1681C 29.2025 12.9869 29.1115 12.8359 29.2025 12.5943C 29.7485 11.0841 29.5362 9.57405 28.9901 8.09415C 28.9598 7.97334 28.7474 7.85253 28.6564 7.85253C 28.171 7.91294 27.625 7.88273 27.1699 8.09415C 26.0778 8.54718 25.0464 9.12102 23.9846 9.63445C 23.8026 9.72506 23.5296 9.78546 23.3476 9.75526C 21.1634 9.21162 18.9185 9.09082 16.7039 9.36263C 16.0062 9.45324 15.3085 9.60425 14.6411 9.75526C 14.368 9.81566 14.1253 9.78546 13.8827 9.63445C 12.6995 8.8492 11.4557 8.27536 10.0906 7.94314C 10.0603 7.94314 10.0299 7.91294 9.99961 7.91294C 9.11985 7.73172 8.96817 7.85253 8.72548 8.66799C 8.33111 10.0271 8.2401 11.3862 8.72548 12.7151C 8.75582 12.8057 8.75582 12.9869 8.69515 13.0473C 6.32892 15.8561 6.51093 18.9971 7.5727 22.1985C 8.45246 24.8865 10.576 26.2456 13.1849 26.91C 13.913 27.0912 14.6714 27.212 15.4601 27.3631C 14.7927 28.0275 14.459 28.843 14.3074 29.749C 14.3074 29.8396 14.1557 29.9302 14.0343 29.9906C 11.8805 30.7457 10.0906 30.5041 8.84683 28.4201C 8.20977 27.3328 7.26934 26.5778 5.99522 26.3966C 5.69185 26.3664 5.35816 26.5174 5.02446 26.608C 5.20647 26.8798 5.32782 27.212 5.57051 27.3631C 6.66262 28.0275 7.36035 28.994 7.78506 30.1416C 8.36145 31.7121 9.54456 32.437 11.1221 32.588C 12.1535 32.6786 13.1849 32.6182 14.2467 32.6182C 14.2467 33.7659 14.277 35.0042 14.2467 36.2123C 14.2467 36.7257 13.7006 37.1183 13.1546 36.9673C 12.3962 36.7559 11.6074 36.4841 10.8794 36.1216C 4.90311 33.1316 1.17175 28.3899 0.231323 21.7757C -0.800111 14.5876 1.62679 8.60758 7.33001 4.01687C 10.394 1.5403 13.9737 0.241616 17.9477 0.0604041C 18.0691 0.0604041 18.1904 0.030202 18.3421 -4.50047e-10C 18.7668 -4.50047e-10 19.2218 -4.50047e-10 19.6465 -4.50047e-10C 20.3139 0.0604041 20.9813 0.0906061 21.6184 0.181212C 25.6531 0.755051 29.1418 2.44637 32.0844 5.22495C 35.0574 8.03374 36.9079 11.4768 37.6663 15.4936C 37.7876 16.2487 37.8787 17.0037 38 17.7286C 37.9697 18.5743 37.9697 19.3897 37.9697 20.175Z"/>
</defs>
</svg>
