<svg width="48" height="32" viewBox="0 0 48 32" version="1.1" xmlns="http://www.w3.org/2000/svg" xmlns:xlink="http://www.w3.org/1999/xlink">
<title>Group</title>
<desc>Created using Figma</desc>
<g id="Canvas" transform="translate(-6235 -15659)">
<g id="Group">
<g id="Group">
<g id="Vector">
<use xlink:href="#path0_fill" transform="translate(6235 15659)" fill="#FFFFFF"/>
</g>
<g id="Vector">
<use xlink:href="#path1_fill" transform="translate(6269.02 15668)" fill="#FFFFFF"/>
</g>
</g>
</g>
</g>
<defs>
<path id="path0_fill" d="M 17.273 0C 18.2746 0.200054 19.2761 0.320086 20.2776 0.560151C 22.6413 1.16031 24.6844 2.36064 26.5273 4.00108C 26.5673 4.04109 26.6074 4.12111 26.6474 4.16112C 25.1652 5.64152 23.6829 7.08191 22.2006 8.60232C 22.0003 8.44227 21.7199 8.24222 21.4795 8.04217C 17.3131 5.00135 11.3038 6.00162 8.33928 10.2428C 4.57348 15.6442 6.81693 22.9262 12.9864 25.1668C 16.4317 26.4471 21.4795 25.4469 23.6829 21.9659C 24.2437 21.0857 24.6844 20.0054 24.7245 19.1652C 23.2823 19.1652 21.84 19.1652 20.3978 19.1652C 18.9556 19.1652 17.5535 19.1652 16.1112 19.1652C 16.1112 17.0846 16.1112 15.0441 16.1112 13.0035C 21.1189 13.0035 26.0866 13.0035 31.2145 13.0035C 31.2946 14.0838 31.4148 15.1641 31.4148 16.2844C 31.4548 19.8053 30.6135 23.0862 28.5704 25.967C 26.1266 29.2879 22.8015 31.0484 18.8354 31.7686C 10.9433 33.1289 3.0912 28.3676 0.727565 20.7656C -1.99663 11.8832 3.17132 2.76074 12.1852 0.480129C 13.0265 0.280075 13.9078 0.160043 14.7491 0C 15.5904 0 16.4317 0 17.273 0Z"/>
<path id="path1_fill" d="M 13.9815 9.00243C 12.339 9.00243 10.6965 9.00243 8.97381 9.00243C 8.97381 10.6429 8.97381 12.2433 8.97381 13.8837C 7.61171 13.8837 6.32974 13.8837 4.96764 13.8837C 4.96764 12.2433 4.96764 10.6429 4.96764 8.96241C 3.28506 8.96241 1.68259 8.96241 6.11292e-07 8.96241C 6.11292e-07 7.60205 6.11292e-07 6.3217 6.11292e-07 4.96134C 1.64253 4.96134 3.24499 4.96134 4.92758 4.96134C 4.92758 3.28088 4.92758 1.64044 4.92758 1.52629e-07C 6.28967 1.52629e-07 7.57165 1.52629e-07 8.93374 1.52629e-07C 8.93374 1.64044 8.93374 3.24087 8.93374 4.88131C 10.6564 4.88131 12.2989 4.88131 13.9414 4.88131C 13.9815 6.24168 13.9815 7.60205 13.9815 9.00243Z"/>
</defs>
</svg>
