<svg width="45" height="26" viewBox="0 0 45 26" version="1.1" xmlns="http://www.w3.org/2000/svg" xmlns:xlink="http://www.w3.org/1999/xlink">
<title>Group</title>
<desc>Created using Figma</desc>
<g id="Canvas" transform="translate(-6407 -15664)">
<g id="Group">
<g id="x37 33vlm.tif 1">
<g id="Group">
<g id="Vector">
<use xlink:href="#path0_fill" transform="translate(6407 15664)" fill="#FFFFFF"/>
</g>
</g>
</g>
</g>
</g>
<defs>
<path id="path0_fill" d="M 0 2.47126C 0 2.25344 0 2.06673 0 1.8489C 0.369914 1.22653 1.01726 1.1643 1.66461 1.1643C 3.54501 1.13318 5.45623 1.13318 7.33662 1.13318C 8.66215 1.13318 9.15536 1.47548 9.67941 2.68909C 10.8508 5.39638 12.1455 8.04143 13.7176 10.562C 14.2109 11.34 14.7965 12.0868 15.6289 12.5225C 16.2762 12.8648 16.8002 12.7092 17.1085 12.0557C 17.2318 11.8067 17.3551 11.4955 17.3859 11.2155C 17.5092 10.4686 17.6326 9.69069 17.6942 8.94385C 17.8175 7.20123 17.7867 5.48973 17.3859 3.77823C 17.1702 2.90692 16.6769 2.31567 15.8138 2.03561C 15.6289 1.97337 15.4131 1.91114 15.2281 1.88002C 14.8582 1.81778 14.889 1.63107 15.0432 1.41324C 15.5364 0.79088 16.1837 0.417461 16.9544 0.292988C 19.328 -0.0804308 21.7016 -0.0804308 24.106 0.199633C 25.5549 0.355224 26.0173 0.759761 26.2947 1.97337C 26.3255 2.16008 26.3564 2.34679 26.3564 2.5335C 26.3564 3.65376 26.3255 4.74289 26.3255 5.86315C 26.2947 7.41906 26.2639 8.97497 26.2947 10.5309C 26.3255 11.091 26.5105 11.6823 26.7879 12.2113C 27.0962 12.7714 27.6511 12.8025 28.1443 12.398C 28.545 12.0557 28.9457 11.7134 29.254 11.34C 30.5795 9.69069 31.6893 7.88584 32.6141 6.01874C 33.2306 4.80513 33.7546 3.5604 34.2787 2.31567C 34.5561 1.69331 34.926 1.28877 35.635 1.28877C 38.1628 1.28877 40.6905 1.25765 43.1874 1.22653C 43.4957 1.22653 43.8039 1.25765 44.1122 1.35101C 44.852 1.53772 45.1295 1.97337 44.9445 2.72021C 44.7596 3.37369 44.5129 4.05829 44.2047 4.64954C 43.0641 6.82782 41.5228 8.72603 40.074 10.7176C 39.3342 11.7134 38.5943 12.7403 37.9162 13.7983C 37.4846 14.4518 37.5462 15.1675 38.0086 15.7899C 38.3169 16.1944 38.656 16.5678 38.9951 16.9101C 40.2281 18.186 41.5228 19.3996 42.6942 20.6754C 43.4032 21.4534 44.0506 22.3247 44.5746 23.2271C 45.2836 24.5341 45.0678 25.7166 43.2491 25.841C 42.725 25.8722 42.2318 25.9033 41.7078 25.9033C 40.1356 25.9344 38.5635 25.9344 36.9914 25.9966C 36.1591 26.0278 35.4192 25.841 34.7102 25.4987C 33.6313 25.0009 32.8298 24.1295 32.0284 23.2582C 31.1961 22.3558 30.3946 21.3911 29.5006 20.551C 28.3909 19.4929 27.6202 19.773 26.8496 21.08C 26.8187 21.1422 26.7879 21.2044 26.7571 21.2978C 26.3872 22.2002 26.3255 23.1338 26.2947 24.0673C 26.233 25.3743 25.7398 25.8722 24.4143 25.8722C 23.4279 25.8722 22.4414 25.9033 21.455 25.8722C 20.7768 25.841 20.0678 25.8099 19.4205 25.6543C 15.6905 24.8453 12.6387 22.8226 10.1726 19.9597C 7.3058 16.4745 4.93218 12.678 2.92848 8.66379C 1.91122 6.64111 0.986437 4.55618 0 2.47126Z"/>
</defs>
</svg>
