<svg width="54" height="54" viewBox="0 0 54 54" version="1.1" xmlns="http://www.w3.org/2000/svg" xmlns:xlink="http://www.w3.org/1999/xlink">
<title>Group</title>
<desc>Created using Figma</desc>
<g id="Canvas" transform="translate(-4663 -15633)">
<g id="Group">
<g id="Vector">
<use xlink:href="#path0_fill" transform="translate(4685 15648)" fill="#E9CB6B"/>
</g>
<g id="Vector">
<use xlink:href="#path1_fill" transform="translate(4685.26 15654.9)" fill="#E9CB6B"/>
</g>
<g id="Vector">
<use xlink:href="#path2_stroke" transform="translate(4664 15634)" fill="#E9CB6B"/>
</g>
</g>
</g>
<defs>
<path id="path0_fill" d="M 5 10.1333C 7.76142 10.1333 10 7.86486 10 5.06663C 10 2.26841 7.76142 0 5 0C 2.23858 0 0 2.26841 0 5.06663C 0 7.86486 2.23858 10.1333 5 10.1333Z"/>
<path id="path1_fill" d="M 9.47368 17.0666L 2.50967e-07 17.0666L 2.63158 5.08623e-07L 6.8421 5.08623e-07L 9.47368 17.0666Z"/>
<path id="path2_stroke" d="M 51.3 26C 51.3 39.9728 39.9728 51.3 26 51.3L 26 52.7C 40.746 52.7 52.7 40.746 52.7 26L 51.3 26ZM 26 51.3C 12.0272 51.3 0.7 39.9728 0.7 26L -0.7 26C -0.7 40.746 11.254 52.7 26 52.7L 26 51.3ZM 0.7 26C 0.7 12.0272 12.0272 0.7 26 0.7L 26 -0.7C 11.254 -0.7 -0.7 11.254 -0.7 26L 0.7 26ZM 26 0.7C 39.9728 0.7 51.3 12.0272 51.3 26L 52.7 26C 52.7 11.254 40.746 -0.7 26 -0.7L 26 0.7Z"/>
</defs>
</svg>
