<?xml version="1.0" encoding="iso-8859-1"?>
<!-- Generator: Adobe Illustrator 19.0.0, SVG Export Plug-In . SVG Version: 6.00 Build 0)  -->
<svg version="1.1" id="Layer_1" xmlns="http://www.w3.org/2000/svg" xmlns:xlink="http://www.w3.org/1999/xlink" x="0px" y="0px"
	 viewBox="0 0 512.008 512.008" style="enable-background:new 0 0 512.008 512.008;" xml:space="preserve">
<g>
	<g>
		<path d="M384.004,304.004v48H54.628l68.688-68.688l-22.624-22.624l-96,96c-6.256,6.256-6.256,16.368,0,22.624l96,96l22.624-22.624
			l-68.688-68.688h345.376c8.848,0,16-7.152,16-16v-64H384.004z"/>
	</g>
</g>
<g>
	<g>
		<path d="M507.316,132.692l-96-96l-22.624,22.624l68.688,68.688H112.004c-8.832,0-16,7.152-16,16v64h32v-48H457.38l-68.688,68.688
			l22.624,22.624l96-96C513.572,149.06,513.572,138.948,507.316,132.692z"/>
	</g>
</g>
<g>
</g>
<g>
</g>
<g>
</g>
<g>
</g>
<g>
</g>
<g>
</g>
<g>
</g>
<g>
</g>
<g>
</g>
<g>
</g>
<g>
</g>
<g>
</g>
<g>
</g>
<g>
</g>
<g>
</g>
</svg>
