<svg width="33" height="41" viewBox="0 0 33 41" version="1.1" xmlns="http://www.w3.org/2000/svg" xmlns:xlink="http://www.w3.org/1999/xlink">
<title>Group</title>
<desc>Created using Figma</desc>
<g id="Canvas" transform="translate(-2918 -15627)">
<g id="Group">
<g id="Vector">
<use xlink:href="#path0_stroke" transform="translate(2920 15629)" fill="#E9CB6B"/>
</g>
<g id="Vector">
<use xlink:href="#path1_stroke" transform="translate(2928.64 15641.7)" fill="#E9CB6B"/>
</g>
</g>
</g>
<defs>
<path id="path0_stroke" d="M 28.8234 7.24138L 30.3045 7.00374C 30.203 6.37161 29.7116 5.87353 29.0809 5.76364L 28.8234 7.24138ZM 14.5739 0L 15.6215 -1.07361C 15.0382 -1.64276 14.1072 -1.64204 13.5247 -1.072L 14.5739 0ZM 0.324489 7.24138L 0.141081 5.75263C -0.510932 5.83296 -1.03481 6.32821 -1.15161 6.97469L 0.324489 7.24138ZM 14.5739 37L 13.9031 38.3416C 14.3414 38.5608 14.859 38.552 15.2896 38.3183L 14.5739 37ZM 29.0809 5.76364C 25.1411 5.09402 21.8526 3.40648 19.3953 1.81745C 18.1843 1.037 17.2519 0.319729 16.5855 -0.229777C 16.26 -0.497782 16.0211 -0.707515 15.8505 -0.861608C 15.7687 -0.935387 15.7119 -0.988101 15.67 -1.02754C 15.6507 -1.04565 15.6387 -1.0571 15.6289 -1.06649C 15.6248 -1.07039 15.623 -1.07215 15.6209 -1.07415C 15.6203 -1.07475 15.6198 -1.07523 15.6201 -1.07492C 15.6201 -1.07496 15.6206 -1.07451 15.6205 -1.07453C 15.6207 -1.07442 15.6209 -1.07419 15.621 -1.07414C 15.6212 -1.07389 15.6215 -1.07361 14.5739 0C 13.5264 1.07361 13.5267 1.07393 13.5271 1.07427C 13.5272 1.07441 13.5276 1.07477 13.5279 1.07506C 13.5283 1.07543 13.5291 1.07629 13.5299 1.07703C 13.531 1.07813 13.5333 1.08037 13.5356 1.08256C 13.5393 1.08614 13.5461 1.09271 13.5535 1.09981C 13.5667 1.11244 13.5891 1.1337 13.6153 1.15836C 13.6644 1.20449 13.7433 1.27765 13.8401 1.36511C 14.0266 1.53348 14.3166 1.78765 14.6776 2.08538C 15.3841 2.66734 16.4556 3.48886 17.7679 4.33772C 20.3573 6.00731 24.1935 7.94046 28.5659 8.71912L 29.0809 5.76364ZM 14.5739 0C 13.5247 -1.072 13.525 -1.07225 13.5252 -1.07248C 13.5253 -1.07252 13.5255 -1.07272 13.5256 -1.07281C 13.5256 -1.07282 13.5258 -1.07307 13.5258 -1.07305C 13.5254 -1.07266 13.5254 -1.07263 13.5246 -1.07186C 13.5222 -1.06958 13.5199 -1.06732 13.5153 -1.06286C 13.5045 -1.05248 13.4908 -1.0394 13.4696 -1.01937C 13.4241 -0.976321 13.3618 -0.918101 13.2735 -0.837836C 13.0904 -0.671162 12.8337 -0.443638 12.4889 -0.156294C 11.7848 0.431174 10.8075 1.19334 9.56696 2.00338C 7.05395 3.65011 3.805 5.32402 0.141081 5.75263L 0.507898 8.73012C 4.68117 8.19322 8.55695 6.24645 11.2094 4.51386C 12.5516 3.63425 13.6672 2.7671 14.4103 2.14767C 14.7891 1.83157 15.0945 1.56125 15.2927 1.38094C 15.3951 1.28771 15.4782 1.21016 15.5304 1.1608C 15.5581 1.13463 15.5814 1.11235 15.5953 1.09893C 15.6031 1.09148 15.6101 1.08473 15.6139 1.08097C 15.6163 1.07872 15.6186 1.07647 15.6197 1.07534C 15.6205 1.07459 15.6213 1.07376 15.6217 1.07338C 15.622 1.0731 15.6224 1.07276 15.6225 1.07262C 15.6228 1.0723 15.6231 1.072 14.5739 0ZM 0.324489 7.24138C -1.15161 6.97469 -1.15175 6.97543 -1.15189 6.97625C -1.15196 6.97663 -1.15212 6.97753 -1.15226 6.97829C -1.15245 6.97936 -1.15286 6.98164 -1.15324 6.98379C -1.15384 6.9872 -1.15498 6.99367 -1.15616 7.00048C -1.1582 7.01231 -1.16169 7.03277 -1.16558 7.05624C -1.17275 7.09956 -1.18401 7.1699 -1.19673 7.25477C -1.22098 7.41706 -1.25589 7.66959 -1.29166 7.97931C -1.36107 8.58303 -1.44224 9.48958 -1.47943 10.575C -1.55064 12.7114 -1.44639 15.766 -0.76939 19.0509C 0.607676 25.6769 4.38123 33.5807 13.9031 38.3416L 15.2448 35.6584C 6.76668 31.4193 3.41551 24.4438 2.16785 18.4405C 1.53248 15.4107 1.44936 12.7131 1.51887 10.6761C 1.55204 9.67475 1.62326 8.88922 1.68864 8.32255C 1.72027 8.04707 1.74836 7.84483 1.77025 7.69865C 1.78061 7.62928 1.78821 7.58195 1.79414 7.54616C 1.7968 7.53008 1.79842 7.52063 1.79984 7.51244C 1.80039 7.50924 1.80058 7.50816 1.80087 7.50654C 1.80093 7.50617 1.80093 7.50618 1.8009 7.50637C 1.80087 7.5065 1.8008 7.50692 1.80079 7.50699C 1.8007 7.50749 1.80059 7.50807 0.324489 7.24138ZM 15.2896 38.3183C 24.5254 33.3046 28.2865 25.4274 29.7262 18.8803C 30.4353 15.6311 30.5889 12.6287 30.5577 10.5323C 30.5408 9.46697 30.4784 8.57864 30.4221 7.98775C 30.393 7.68445 30.3637 7.43712 30.3432 7.27838C 30.3324 7.19528 30.3227 7.12631 30.3166 7.08392C 30.3132 7.06092 30.3102 7.0408 30.3084 7.0292C 30.3074 7.02251 30.3064 7.01612 30.3059 7.01277C 30.3055 7.01065 30.3052 7.00838 30.305 7.00732C 30.3049 7.00657 30.3048 7.00567 30.3047 7.0053C 30.3046 7.00448 30.3045 7.00374 28.8234 7.24138C 27.3423 7.47902 27.3422 7.47843 27.3422 7.47792C 27.3422 7.47786 27.3421 7.47742 27.3421 7.47729C 27.342 7.47712 27.342 7.47704 27.3421 7.47738C 27.3423 7.47894 27.3425 7.47992 27.3429 7.483C 27.3442 7.49095 27.3455 7.50003 27.3478 7.51564C 27.3529 7.5505 27.3593 7.59645 27.3681 7.66405C 27.3866 7.8067 27.4101 8.00389 27.4357 8.2731C 27.4887 8.8272 27.5436 9.5958 27.558 10.5782C 27.5894 12.5771 27.4619 15.2331 26.7962 18.236C 25.4861 24.1933 22.1225 31.1954 13.8583 35.6817L 15.2896 38.3183Z"/>
<path id="path1_stroke" d="M 0.650244 3.5851L -0.109482 2.93486L -1.40997 4.45431L -0.650244 5.10455L 0.650244 3.5851ZM 4.51233 8.2069L 3.86208 8.96662L 4.57085 9.57325L 5.22515 8.90824L 4.51233 8.2069ZM 13.2998 0.701342L 14.0012 -0.0114834L 12.5755 -1.41417L 11.8742 -0.701342L 13.2998 0.701342ZM -0.650244 5.10455L 3.86208 8.96662L 5.16257 7.44717L 0.650244 3.5851L -0.650244 5.10455ZM 5.22515 8.90824L 13.2998 0.701342L 11.8742 -0.701342L 3.7995 7.50555L 5.22515 8.90824Z"/>
</defs>
</svg>
