<svg width="36" height="36" viewBox="0 0 36 36" version="1.1" xmlns="http://www.w3.org/2000/svg" xmlns:xlink="http://www.w3.org/1999/xlink">
<title>Complaint</title>
<desc>Created using Figma</desc>
<g id="Canvas" transform="translate(-3393 -15630)">
<g id="Complaint">
<g id="Vector">
<use xlink:href="#path0_stroke" transform="translate(3404.8 15641.8)" fill="#E9CB6B"/>
</g>
<g id="Vector">
<use xlink:href="#path1_stroke" transform="translate(3399.8 15636.8)" fill="#E9CB6B"/>
</g>
<g id="Group">
<g id="Vector">
<use xlink:href="#path2_fill" transform="translate(3393 15630)" fill="#E9CB6B"/>
</g>
</g>
<g id="Group">
<g id="Group">
<g id="Group">
<g id="Vector">
<use xlink:href="#path3_stroke" transform="translate(3411 15637.6)" fill="#E9CB6B"/>
</g>
<g id="Vector">
<use xlink:href="#path4_stroke" transform="translate(3411 15655.3)" fill="#E9CB6B"/>
</g>
</g>
<g id="Group">
<g id="Vector">
<use xlink:href="#path5_stroke" transform="translate(3416.1 15640.1)" fill="#E9CB6B"/>
</g>
<g id="Vector">
<use xlink:href="#path6_stroke" transform="translate(3403.7 15653.1)" fill="#E9CB6B"/>
</g>
</g>
<g id="Group">
<g id="Vector">
<use xlink:href="#path7_stroke" transform="translate(3418.3 15648)" fill="#E9CB6B"/>
</g>
<g id="Vector">
<use xlink:href="#path8_stroke" transform="translate(3400.6 15648)" fill="#E9CB6B"/>
</g>
</g>
<g id="Group">
<g id="Vector">
<use xlink:href="#path9_stroke" transform="translate(3416.1 15653.1)" fill="#E9CB6B"/>
</g>
<g id="Vector">
<use xlink:href="#path10_stroke" transform="translate(3403.7 15640.7)" fill="#E9CB6B"/>
</g>
</g>
</g>
<g id="Group">
<g id="Group">
<g id="Vector">
<use xlink:href="#path11_stroke" transform="translate(3413.8 15638.4)" fill="#E9CB6B"/>
</g>
<g id="Vector">
<use xlink:href="#path12_stroke" transform="translate(3407 15654.7)" fill="#E9CB6B"/>
</g>
</g>
<g id="Group">
<g id="Vector">
<use xlink:href="#path13_stroke" transform="translate(3417.7 15644.1)" fill="#E9CB6B"/>
</g>
<g id="Vector">
<use xlink:href="#path14_stroke" transform="translate(3401.4 15650.7)" fill="#E9CB6B"/>
</g>
</g>
<g id="Group">
<g id="Vector">
<use xlink:href="#path15_stroke" transform="translate(3417.7 15650.8)" fill="#E9CB6B"/>
</g>
<g id="Vector">
<use xlink:href="#path16_stroke" transform="translate(3401.4 15644)" fill="#E9CB6B"/>
</g>
</g>
<g id="Group">
<g id="Vector">
<use xlink:href="#path17_stroke" transform="translate(3413.7 15654.7)" fill="#E9CB6B"/>
</g>
<g id="Vector">
<use xlink:href="#path18_stroke" transform="translate(3407.1 15638.4)" fill="#E9CB6B"/>
</g>
</g>
</g>
</g>
<g id="Vector">
<use xlink:href="#path19_stroke" transform="translate(3417.1 15636.3)" fill="#E9CB6B"/>
</g>
</g>
</g>
<defs>
<path id="path0_stroke" d="M 11.4 6.2C 11.4 9.07188 9.07188 11.4 6.2 11.4L 6.2 13.4C 10.1764 13.4 13.4 10.1764 13.4 6.2L 11.4 6.2ZM 6.2 11.4C 3.32812 11.4 1 9.07188 1 6.2L -1 6.2C -1 10.1764 2.22355 13.4 6.2 13.4L 6.2 11.4ZM 1 6.2C 1 3.32812 3.32812 1 6.2 1L 6.2 -1C 2.22355 -1 -1 2.22355 -1 6.2L 1 6.2ZM 6.2 1C 9.07188 1 11.4 3.32812 11.4 6.2L 13.4 6.2C 13.4 2.22355 10.1764 -1 6.2 -1L 6.2 1Z"/>
<path id="path1_stroke" d="M 21.4 11.2C 21.4 16.8333 16.8333 21.4 11.2 21.4L 11.2 23.4C 17.9379 23.4 23.4 17.9379 23.4 11.2L 21.4 11.2ZM 11.2 21.4C 5.5667 21.4 1 16.8333 1 11.2L -1 11.2C -1 17.9379 4.46213 23.4 11.2 23.4L 11.2 21.4ZM 1 11.2C 1 5.5667 5.5667 1 11.2 1L 11.2 -1C 4.46213 -1 -1 4.46213 -1 11.2L 1 11.2ZM 11.2 1C 16.8333 1 21.4 5.5667 21.4 11.2L 23.4 11.2C 23.4 4.46213 17.9379 -1 11.2 -1L 11.2 1Z"/>
<path id="path2_fill" d="M 33 3L 33 33L 3 33L 3 3L 33 3ZM 36 0L 0 0L 0 36L 36 36L 36 0Z"/>
<path id="path3_stroke" d="M 0.5 -9.53674e-08L 0.5 -0.5L -0.5 -0.5L -0.5 -9.53674e-08L 0.5 -9.53674e-08ZM -0.5 3.1L -0.5 3.6L 0.5 3.6L 0.5 3.1L -0.5 3.1ZM -0.5 -9.53674e-08L -0.5 3.1L 0.5 3.1L 0.5 -9.53674e-08L -0.5 -9.53674e-08Z"/>
<path id="path4_stroke" d="M 0.5 -7.62939e-07L 0.5 -0.500001L -0.5 -0.500001L -0.5 -7.62939e-07L 0.5 -7.62939e-07ZM -0.5 3L -0.5 3.5L 0.5 3.5L 0.5 3L -0.5 3ZM -0.5 -7.62939e-07L -0.5 3L 0.5 3L 0.5 -7.62939e-07L -0.5 -7.62939e-07Z"/>
<path id="path5_stroke" d="M -0.347067 2.34008L -0.70699 2.68715L -0.0128539 3.40699L 0.347068 3.05992L -0.347067 2.34008ZM 3.14707 0.359922L 3.50699 0.0128547L 2.81285 -0.70699L 2.45293 -0.359922L 3.14707 0.359922ZM 0.347068 3.05992L 3.14707 0.359922L 2.45293 -0.359922L -0.347067 2.34008L 0.347068 3.05992Z"/>
<path id="path6_stroke" d="M 2.46168 0.345238L 2.80692 -0.0164393L 2.08356 -0.706915L 1.73832 -0.345238L 2.46168 0.345238ZM -0.361678 1.85476L -0.706916 2.21644L 0.0164395 2.90691L 0.361677 2.54524L -0.361678 1.85476ZM 1.73832 -0.345238L -0.361678 1.85476L 0.361677 2.54524L 2.46168 0.345238L 1.73832 -0.345238Z"/>
<path id="path7_stroke" d="M 3 0.5L 3.5 0.5L 3.5 -0.5L 3 -0.5L 3 0.5ZM -7.62939e-07 -0.5L -0.500001 -0.5L -0.500001 0.5L -7.62939e-07 0.5L -7.62939e-07 -0.5ZM 3 -0.5L -7.62939e-07 -0.5L -7.62939e-07 0.5L 3 0.5L 3 -0.5Z"/>
<path id="path8_stroke" d="M 3.1 0.5L 3.6 0.5L 3.6 -0.5L 3.1 -0.5L 3.1 0.5ZM -9.53674e-08 -0.5L -0.5 -0.5L -0.5 0.5L -9.53674e-08 0.5L -9.53674e-08 -0.5ZM 3.1 -0.5L -9.53674e-08 -0.5L -9.53674e-08 0.5L 3.1 0.5L 3.1 -0.5Z"/>
<path id="path9_stroke" d="M 1.84645 2.55355L 2.2 2.90711L 2.90711 2.2L 2.55355 1.84645L 1.84645 2.55355ZM 0.353554 -0.353553L 3.8147e-07 -0.707106L -0.707106 3.8147e-07L -0.353553 0.353554L 0.353554 -0.353553ZM 2.55355 1.84645L 0.353554 -0.353553L -0.353553 0.353554L 1.84645 2.55355L 2.55355 1.84645Z"/>
<path id="path10_stroke" d="M 1.74645 2.45355L 2.1 2.80711L 2.80711 2.1L 2.45355 1.74645L 1.74645 2.45355ZM 0.353553 -0.353554L -1.90735e-07 -0.707107L -0.707107 -1.90735e-07L -0.353554 0.353553L 0.353553 -0.353554ZM 2.45355 1.74645L 0.353553 -0.353554L -0.353554 0.353553L 1.74645 2.45355L 2.45355 1.74645Z"/>
<path id="path11_stroke" d="M 1.66201 0.191176L 1.85318 -0.270833L 0.929168 -0.653185L 0.737992 -0.191176L 1.66201 0.191176ZM -0.462009 2.70882L -0.653185 3.17083L 0.270832 3.55318L 0.462008 3.09118L -0.462009 2.70882ZM 0.737992 -0.191176L -0.462009 2.70882L 0.462008 3.09118L 1.66201 0.191176L 0.737992 -0.191176Z"/>
<path id="path12_stroke" d="M 1.65957 0.19696L 1.85653 -0.262612L 0.937387 -0.656531L 0.740427 -0.196959L 1.65957 0.19696ZM -0.459572 2.60304L -0.656532 3.06261L 0.262613 3.45653L 0.459572 2.99696L -0.459572 2.60304ZM 0.740427 -0.196959L -0.459572 2.60304L 0.459572 2.99696L 1.65957 0.19696L 0.740427 -0.196959Z"/>
<path id="path13_stroke" d="M 3.07733 0.467499L 3.54483 0.290172L 3.19017 -0.644825L 2.72267 -0.467498L 3.07733 0.467499ZM -0.177326 0.632501L -0.644825 0.809828L -0.290171 1.74483L 0.177328 1.5675L -0.177326 0.632501ZM 2.72267 -0.467498L -0.177326 0.632501L 0.177328 1.5675L 3.07733 0.467499L 2.72267 -0.467498Z"/>
<path id="path14_stroke" d="M 2.99696 0.459573L 3.45653 0.262614L 3.06261 -0.656531L 2.60304 -0.459572L 2.99696 0.459573ZM -0.19696 0.740427L -0.656532 0.937386L -0.262614 1.85653L 0.196959 1.65957L -0.19696 0.740427ZM 2.60304 -0.459572L -0.19696 0.740427L 0.196959 1.65957L 2.99696 0.459573L 2.60304 -0.459572Z"/>
<path id="path15_stroke" d="M 2.60304 1.65957L 3.06261 1.85653L 3.45653 0.937387L 2.99696 0.740428L 2.60304 1.65957ZM 0.196961 -0.459573L -0.262612 -0.656533L -0.656532 0.262612L -0.196959 0.459572L 0.196961 -0.459573ZM 2.99696 0.740428L 0.196961 -0.459573L -0.196959 0.459572L 2.60304 1.65957L 2.99696 0.740428Z"/>
<path id="path16_stroke" d="M 2.70882 1.66201L 3.17083 1.85318L 3.55318 0.929167L 3.09118 0.737991L 2.70882 1.66201ZM 0.191175 -0.462008L -0.270833 -0.653184L -0.653185 0.270833L -0.191176 0.462008L 0.191175 -0.462008ZM 3.09118 0.737991L 0.191175 -0.462008L -0.191176 0.462008L 2.70882 1.66201L 3.09118 0.737991Z"/>
<path id="path17_stroke" d="M 0.737991 3.09118L 0.929167 3.55318L 1.85318 3.17083L 1.66201 2.70882L 0.737991 3.09118ZM 0.462009 -0.191175L 0.270833 -0.653183L -0.653183 -0.270832L -0.462008 0.191177L 0.462009 -0.191175ZM 1.66201 2.70882L 0.462009 -0.191175L -0.462008 0.191177L 0.737991 3.09118L 1.66201 2.70882Z"/>
<path id="path18_stroke" d="M 0.634624 2.98283L 0.81745 3.4482L 1.7482 3.08255L 1.56538 2.61717L 0.634624 2.98283ZM 0.465376 -0.182826L 0.28255 -0.648202L -0.648202 -0.28255L -0.465375 0.182826L 0.465376 -0.182826ZM 1.56538 2.61717L 0.465376 -0.182826L -0.465375 0.182826L 0.634624 2.98283L 1.56538 2.61717Z"/>
<path id="path19_stroke" d="M -0.300285 0.746151L -1.25413 1.04644L -0.653563 2.95414L 0.300286 2.65385L -0.300285 0.746151ZM 5.4 1.90735e-07L 6.36707 0.254494L 6.82826 -1.49802L 5.09971 -0.953849L 5.4 1.90735e-07ZM 2.93293 5.44551L 2.67843 6.41258L 4.61258 6.92157L 4.86707 5.95449L 2.93293 5.44551ZM 0.300286 2.65385L 5.70029 0.953849L 5.09971 -0.953849L -0.300285 0.746151L 0.300286 2.65385ZM 4.43293 -0.254493L 2.93293 5.44551L 4.86707 5.95449L 6.36707 0.254494L 4.43293 -0.254493Z"/>
</defs>
</svg>
