<svg width="29" height="45" viewBox="0 0 29 45" version="1.1" xmlns="http://www.w3.org/2000/svg" xmlns:xlink="http://www.w3.org/1999/xlink">
<title>Group</title>
<desc>Created using Figma</desc>
<g id="Canvas" transform="translate(-3165 -15624)">
<g id="Group">
<g id="Vector">
<use xlink:href="#path0_stroke" transform="translate(3168.5 15635.7)" fill="#E9CB6B"/>
</g>
<g id="Group">
<g id="Vector">
<use xlink:href="#path1_fill" transform="translate(3165 15624)" fill="#E9CB6B"/>
</g>
<g id="Vector">
<use xlink:href="#path2_fill" transform="translate(3170.5 15629.5)" fill="#E9CB6B"/>
</g>
</g>
</g>
</g>
<defs>
<path id="path0_stroke" d="M 11.4 31.9L 11.094 32.852C 11.2009 32.8864 11.3128 32.9025 11.425 32.8997L 11.4 31.9ZM 5.8 25.2L 4.89808 25.6319L 4.89945 25.6348L 5.8 25.2ZM -8.88178e-16 12.4L -0.533993 11.5545C -0.947415 11.8156 -1.11138 12.3374 -0.921635 12.7881L -8.88178e-16 12.4ZM 5.7 13.6L 4.87469 14.1647L 5.7 13.6ZM 8.3 17.4L 7.47469 17.9647C 7.72227 18.3265 8.17669 18.4849 8.59554 18.3553C 9.0144 18.2257 9.3 17.8384 9.3 17.4L 8.3 17.4ZM 13.1 11.6L 12.1 11.6C 12.1 12.0578 12.4108 12.4571 12.8546 12.5694L 13.1 11.6ZM 21 13.6L 20.7546 14.5694L 20.7575 14.5701L 21 13.6ZM 24.4 24.7L 23.4 24.7C 23.4 24.7094 23.4001 24.7188 23.4004 24.7282L 24.4 24.7ZM 11.4 31.9C 11.706 30.948 11.7067 30.9482 11.7075 30.9484C 11.7077 30.9485 11.7084 30.9487 11.7088 30.9489C 11.7084 30.9487 11.7122 30.95 11.7114 30.9497C 11.7108 30.9495 11.7171 30.9516 11.7158 30.9512C 11.7152 30.951 11.7228 30.9536 11.7216 30.9531C 11.723 30.9536 11.724 30.9541 11.7214 30.953C 11.7081 30.9481 11.7006 30.9452 11.6755 30.934C 11.6094 30.9053 11.5368 30.8709 11.4149 30.8005C 11.1396 30.644 10.7908 30.4121 10.3209 29.9835C 9.37873 29.131 8.05213 27.565 6.70055 24.7653L 4.89945 25.6348C 6.34787 28.635 7.82127 30.419 8.97909 31.4665C 9.55923 31.9879 10.0854 32.3435 10.4226 32.537C 10.607 32.6416 10.7749 32.7228 10.8729 32.766C 10.9298 32.7907 10.9852 32.8129 11.0144 32.8239C 11.0329 32.8309 11.0529 32.8381 11.0622 32.8413C 11.0688 32.8436 11.0768 32.8464 11.0801 32.8475C 11.0828 32.8484 11.0863 32.8495 11.0876 32.8499C 11.0887 32.8503 11.0903 32.8508 11.0909 32.851C 11.0914 32.8512 11.0922 32.8515 11.0925 32.8515C 11.0932 32.8518 11.094 32.852 11.4 31.9ZM 6.70192 24.7681C 5.00644 21.2277 3.56254 18.041 2.53922 15.7323C 2.02815 14.5793 1.62396 13.6496 1.34646 13.0058C 1.20799 12.6845 1.10183 12.4361 1.02984 12.267C 0.993976 12.1828 0.966935 12.1191 0.948658 12.0759C 0.939583 12.0545 0.932829 12.0385 0.928248 12.0276C 0.925989 12.0223 0.924336 12.0184 0.923201 12.0157C 0.922649 12.0143 0.922258 12.0134 0.921981 12.0128C 0.921851 12.0125 0.921764 12.0122 0.921699 12.0121C 0.92167 12.012 0.921654 12.012 0.92164 12.012C 0.921633 12.0119 0.921635 12.0119 -8.88178e-16 12.4C -0.921635 12.7881 -0.921615 12.7881 -0.921585 12.7882C -0.921563 12.7882 -0.921524 12.7883 -0.921479 12.7884C -0.921398 12.7886 -0.921265 12.7889 -0.921104 12.7893C -0.920796 12.7901 -0.920311 12.7912 -0.919696 12.7927C -0.918498 12.7955 -0.916657 12.7999 -0.914271 12.8055C -0.909563 12.8167 -0.902424 12.8336 -0.893091 12.8556C -0.874552 12.8994 -0.84671 12.965 -0.810308 13.0505C -0.737764 13.2209 -0.629865 13.4733 -0.490213 13.7974C -0.211455 14.4441 0.19685 15.3832 0.710781 16.5427C 1.73746 18.859 3.19356 22.0723 4.89808 25.6319L 6.70192 24.7681ZM 0.533993 13.2455C 1.97802 12.3335 3.87775 12.7076 4.87469 14.1647L 6.52531 13.0353C 4.92225 10.6924 1.82198 10.0665 -0.533993 11.5545L 0.533993 13.2455ZM 4.87469 14.1647L 7.47469 17.9647L 9.12531 16.8353L 6.52531 13.0353L 4.87469 14.1647ZM 9.3 17.4L 9.3 2.4L 7.3 2.4L 7.3 17.4L 9.3 17.4ZM 9.3 2.4C 9.3 1.65228 9.95228 1 10.7 1L 10.7 -1C 8.84771 -1 7.3 0.547716 7.3 2.4L 9.3 2.4ZM 10.7 1C 11.4477 1 12.1 1.65229 12.1 2.4L 14.1 2.4C 14.1 0.547716 12.5523 -1 10.7 -1L 10.7 1ZM 12.1 2.4L 12.1 11.6L 14.1 11.6L 14.1 2.4L 12.1 2.4ZM 12.8546 12.5694L 20.7546 14.5694L 21.2454 12.6306L 13.3454 10.6306L 12.8546 12.5694ZM 20.7575 14.5701C 22.3185 14.9604 23.4 16.3653 23.4 17.9L 25.4 17.9C 25.4 15.4347 23.6815 13.2396 21.2425 12.6299L 20.7575 14.5701ZM 23.4 17.9L 23.4 24.7L 25.4 24.7L 25.4 17.9L 23.4 17.9ZM 24.4 24.7C 23.4004 24.7282 23.4004 24.7279 23.4004 24.7276C 23.4004 24.7276 23.4004 24.7273 23.4004 24.7272C 23.4004 24.7272 23.4004 24.7269 23.4004 24.7269C 23.4004 24.7273 23.4004 24.7273 23.4004 24.7282C 23.4005 24.7307 23.4005 24.7331 23.4006 24.7381C 23.4008 24.7497 23.401 24.7641 23.4011 24.7863C 23.4015 24.8344 23.4014 24.8983 23.3998 24.987C 23.3965 25.1719 23.3876 25.4185 23.3625 25.7298C 23.3119 26.3689 23.2095 27.1538 22.9661 27.9664C 22.726 28.7867 22.4269 29.4663 21.9008 30.0043C 21.4487 30.4834 20.8564 30.8 20 30.8L 20 32.8C 21.4436 32.8 22.5513 32.2291 23.3554 31.3769C 24.0856 30.5837 24.5989 29.4883 24.8839 28.5336C 25.1655 27.5712 25.3006 26.5811 25.3562 25.8889C 25.3842 25.5347 25.3957 25.2266 25.3994 25.0232C 25.4013 24.9177 25.4015 24.8291 25.4011 24.7732C 25.4009 24.7434 25.4005 24.7179 25.4003 24.7027C 25.4001 24.6942 25.4 24.6864 25.3999 24.6821C 25.3998 24.6796 25.3997 24.677 25.3997 24.6757C 25.3997 24.6748 25.3997 24.6739 25.3996 24.6734C 25.3996 24.6731 25.3996 24.6727 25.3996 24.6726C 25.3996 24.6722 25.3996 24.6718 24.4 24.7ZM 20 30.8C 17.6942 30.8 15.5363 30.8251 13.9591 30.8501C 13.1699 30.8627 12.5236 30.8752 12.0759 30.8846C 11.8517 30.8893 11.6765 30.8932 11.5578 30.896C 11.4983 30.8973 11.4526 30.8984 11.422 30.8992C 11.4066 30.8995 11.3949 30.8998 11.3871 30.9C 11.3831 30.9001 11.3801 30.9002 11.3781 30.9002C 11.3771 30.9003 11.3764 30.9003 11.3759 30.9003C 11.3756 30.9003 11.3754 30.9003 11.3752 30.9003C 11.3752 30.9003 11.3751 30.9003 11.3751 30.9003C 11.375 30.9003 11.375 30.9003 11.4 31.9C 11.425 32.8997 11.425 32.8997 11.425 32.8997C 11.425 32.8997 11.4251 32.8997 11.4251 32.8997C 11.4252 32.8997 11.4254 32.8997 11.4256 32.8997C 11.4261 32.8997 11.4268 32.8996 11.4277 32.8996C 11.4296 32.8996 11.4324 32.8995 11.4362 32.8994C 11.4438 32.8992 11.4551 32.8989 11.4701 32.8986C 11.5004 32.8979 11.5451 32.8968 11.604 32.8954C 11.722 32.8927 11.8951 32.8888 12.1178 32.8842C 12.5639 32.8748 13.2051 32.8623 13.9909 32.8499C 15.5637 32.8249 17.7058 32.8 20 32.8L 20 30.8Z"/>
<path id="path1_fill" d="M 5.3 20.5C 4 18.7 3.2 16.5 3.2 14.1C 3.2 8.1 8.1 3.2 14.1 3.2C 20.1 3.2 25 8.1 25 14.1C 25 17 23.8 19.7 22 21.6L 25.1 22.4C 25.2 22.4 25.3 22.5 25.4 22.5C 27.1 20.1 28.2 17.2 28.2 14.1C 28.3 6.3 22 0 14.2 0C 6.3 0 0 6.3 0 14.2C 0 16.9 0.8 19.4 2.1 21.6C 3.1 20.9 4.2 20.6 5.3 20.5Z"/>
<path id="path2_fill" d="M 8.7 0C 3.9 0 0 3.9 0 8.7C 0 11.5 1.3 13.9 3.3 15.5L 3.2 8.7C 3.2 5.7 5.6 3.2 8.7 3.2C 11.7 3.2 14.2 5.6 14.2 8.7L 14 15.5C 16 13.9 17.3 11.5 17.3 8.7C 17.3 3.9 13.4 0 8.7 0Z"/>
</defs>
</svg>
