<svg width="18" height="17" viewBox="0 0 18 17" fill="none" xmlns="http://www.w3.org/2000/svg">
<path d="M9.09999 13.4C6.49999 13.4 4.39999 11.3 4.39999 8.7C4.39999 6.1 6.49999 4 9.09999 4C10.2 4 11.3 4.4 12.1 5.1L11.6 5.7C10.9 5.1 9.99999 4.8 9.09999 4.8C6.89999 4.8 5.19999 6.6 5.19999 8.7C5.19999 10.9 6.99999 12.6 9.09999 12.6C10.6 12.6 12 11.7 12.6 10.4H9.39999V9.6H13.8L13.6 10.1C13 12.1 11.2 13.4 9.09999 13.4Z" fill="#E9CB6B"/>
<path d="M13.8 7.90039H9.39999V8.70039H13.8V7.90039Z" fill="#E9CB6B"/>
<path d="M9.09999 16.4C13.3526 16.4 16.8 12.9526 16.8 8.7C16.8 4.44741 13.3526 1 9.09999 1C4.8474 1 1.39999 4.44741 1.39999 8.7C1.39999 12.9526 4.8474 16.4 9.09999 16.4Z" stroke="#E9CB6B" stroke-width="1.1221" stroke-miterlimit="10"/>
</svg>
