<svg viewBox="0 0 20 20" id="goldbuy-history"><g id="Canvas"><g id="Group"><g id="Group-2" data-name="Group"><g id="Group-3" data-name="Group"><g id="Group-4" data-name="Group"><g id="Vector"><path id="path0_fill" data-name="path0 fill" d="M11.1,16.4a4.7,4.7,0,0,1,0-9.4,4.62,4.62,0,0,1,3,1.1l-.5.6a3.84,3.84,0,0,0-2.5-.9,3.9,3.9,0,1,0,3.5,5.6H11.4v-.8h4.4l-.2.5A4.62,4.62,0,0,1,11.1,16.4Z" /></g></g><g id="Group-5" data-name="Group"><g id="Vector-2" data-name="Vector"><path id="path1_fill" data-name="path1 fill" d="M15.8,10.9H11.4v.8h4.4Z" /></g></g></g><g id="Vector-3" data-name="Vector"><path id="path2_stroke" data-name="path2 stroke" d="M18.24,11.7a7.14,7.14,0,0,1-7.14,7.14V20a8.26,8.26,0,0,0,8.26-8.26ZM11.1,18.84A7.14,7.14,0,0,1,4,11.7H2.84A8.26,8.26,0,0,0,11.1,20ZM4,11.7A7.14,7.14,0,0,1,11.1,4.56V3.44A8.26,8.26,0,0,0,2.84,11.7ZM11.1,4.56a7.14,7.14,0,0,1,7.14,7.14h1.12A8.26,8.26,0,0,0,11.1,3.44Z"/></g></g><g id="Group-6" data-name="Group"><g id="Vector-4" data-name="Vector"><path id="path3_fill" data-name="path3 fill" d="M5.1,10.2A5.1,5.1,0,1,0,0,5.1,5.1,5.1,0,0,0,5.1,10.2Z"/></g><g id="Group-7" data-name="Group"><g id="Vector-5" data-name="Vector"><path id="path4_fill" data-name="path4 fill" d="M4.39,7.24h1.4V1.64H4.39Z" fill="#e9cb6b"/></g><g id="Vector-6" data-name="Vector"><path id="path5_fill" data-name="path5 fill" d="M4.16,7.3l1,1L8.47,5l-1-1Z" fill="#e9cb6b"/></g><g id="Vector-7" data-name="Vector"><path id="path6_fill" data-name="path6 fill" d="M2.8,3.88l-1,1L5.13,8.19l1-1Z" fill="#e9cb6b"/></g></g></g></g></g></svg>