<svg width="93" height="92" viewBox="0 0 93 92" fill="none" xmlns="http://www.w3.org/2000/svg">
<path d="M46.569 91.7767C21.3127 91.7767 0.77466 71.1965 0.77466 45.8884C0.77466 20.5802 21.3127 0 46.569 0C57.2543 0 67.5234 3.7545 75.7108 10.4292L73.0742 13.6275C65.7194 7.50901 56.2829 4.17167 46.569 4.17167C23.6718 4.17167 4.93778 22.9442 4.93778 45.8884C4.93778 68.8326 23.6718 87.6051 46.569 87.6051C63.6378 87.6051 78.9026 77.315 85.1472 61.6017H49.622V57.43H90.9756L90.143 60.2111C84.0371 79.1227 66.4132 91.7767 46.569 91.7767Z" fill="#E9CB6B"/>
<path d="M92.0861 43.3853H49.6223V47.5569H92.0861V43.3853Z" fill="#E9CB6B"/>
</svg>
