<svg width="359" height="162" viewBox="0 0 359 162" version="1.1" xmlns="http://www.w3.org/2000/svg" xmlns:xlink="http://www.w3.org/1999/xlink">
<title>Group</title>
<desc>Created using Figma</desc>
<g id="Canvas" transform="translate(8060 3768)">
<g id="Group">
<g id="Group">
<g id="Group">
<g id="Vector">
<use xlink:href="#path0_fill" transform="translate(-8060 -3643.82)" fill="#E9CB6B"/>
</g>
<g id="Vector">
<use xlink:href="#path1_fill" transform="translate(-8009.76 -3643.82)" fill="#E9CB6B"/>
</g>
<g id="Vector">
<use xlink:href="#path2_fill" transform="translate(-7953.29 -3643.27)" fill="#E9CB6B"/>
</g>
<g id="Vector">
<use xlink:href="#path3_fill" transform="translate(-7910.27 -3643.27)" fill="#E9CB6B"/>
</g>
<g id="Vector">
<use xlink:href="#path4_fill" transform="translate(-7860.45 -3643.27)" fill="#E9CB6B"/>
</g>
<g id="Vector">
<use xlink:href="#path5_fill" transform="translate(-7804.11 -3643.27)" fill="#E9CB6B"/>
</g>
<g id="Vector">
<use xlink:href="#path6_fill" transform="translate(-7778.85 -3643.27)" fill="#E9CB6B"/>
</g>
<g id="Vector">
<use xlink:href="#path7_fill" transform="translate(-7729.73 -3643.13)" fill="#E9CB6B"/>
</g>
</g>
<g id="Group">
<g id="Group">
<g id="Vector">
<use xlink:href="#path8_fill" transform="translate(-7926.23 -3768)" fill="#E9CB6B"/>
</g>
</g>
<g id="Group">
<g id="Vector">
<use xlink:href="#path9_fill" transform="translate(-7877.38 -3724.61)" fill="#E9CB6B"/>
</g>
</g>
</g>
</g>
</g>
</g>
<defs>
<path id="path0_fill" d="M 0 18.9116C 0 8.89957 7.35485 4.24364e-06 18.3177 4.24364e-06C 24.4236 4.24364e-06 28.3092 1.80773 31.9173 4.86695L 29.2806 8.06523C 26.5052 5.56222 23.3135 3.89356 18.179 3.89356C 10.1303 3.89356 4.30189 10.7073 4.30189 19.0506C 4.30189 27.8111 9.85272 34.3468 18.734 34.3468C 22.8972 34.3468 26.7828 32.6781 29.2806 30.7313L 29.2806 21.6927L 18.179 21.6927L 18.179 17.6601L 33.305 17.6601L 33.305 32.2609C 29.9745 35.3201 24.84 37.8231 18.5953 37.8231C 7.07731 37.8231 0 29.4798 0 18.9116Z"/>
<path id="path1_fill" d="M 1.05874e-06 18.9116C 1.05874e-06 8.76051 7.63239 4.24364e-06 18.734 4.24364e-06C 29.8357 4.24364e-06 37.3293 8.76051 37.3293 18.9116C 37.3293 29.0626 29.6969 37.8231 18.5953 37.8231C 7.49362 37.8231 1.05874e-06 29.2017 1.05874e-06 18.9116ZM 33.0274 18.9116C 33.0274 10.5682 26.9215 3.7545 18.5953 3.7545C 10.269 3.7545 4.30189 10.4292 4.30189 18.9116C 4.30189 27.2549 10.4078 34.0686 18.734 34.0686C 27.0603 34.0686 33.0274 27.394 33.0274 18.9116Z"/>
<path id="path2_fill" d="M 2.11747e-06 -4.24364e-06L 4.16312 -4.24364e-06L 4.16312 32.8171L 24.7012 32.8171L 24.7012 36.5716L 2.11747e-06 36.5716L 2.11747e-06 -4.24364e-06Z"/>
<path id="path3_fill" d="M 2.11747e-06 -4.24364e-06L 12.6281 -4.24364e-06C 24.1461 -4.24364e-06 32.056 7.92618 32.056 18.3554C 32.056 28.6455 24.1461 36.7107 12.6281 36.7107L 2.11747e-06 36.7107L 2.11747e-06 -4.24364e-06ZM 12.7669 32.8171C 22.0645 32.8171 27.8929 26.5596 27.8929 18.3554C 27.8929 10.2901 21.9258 3.89356 12.7669 3.89356L 4.16312 3.89356L 4.16312 32.8171L 12.7669 32.8171Z"/>
<path id="path4_fill" d="M 0.138762 -4.24364e-06L 4.30188 -4.24364e-06L 17.6239 20.024L 30.9459 -4.24364e-06L 35.109 -4.24364e-06L 35.109 36.5716L 30.9459 36.5716L 30.9459 7.09184L 17.6239 26.6987L 17.3463 26.6987L 4.02435 7.09184L 4.02435 36.7107L 4.23495e-06 36.7107L 4.23495e-06 -4.24364e-06L 0.138762 -4.24364e-06Z"/>
<path id="path5_fill" d="M -8.46989e-06 -4.24364e-06L 4.16311 -4.24364e-06L 4.16311 36.5716L -8.46989e-06 36.5716L -8.46989e-06 -4.24364e-06Z"/>
<path id="path6_fill" d="M 8.46989e-06 -4.24364e-06L 3.88557 -4.24364e-06L 26.9215 29.3408L 26.9215 -4.24364e-06L 30.9459 -4.24364e-06L 30.9459 36.5716L 27.6154 36.5716L 4.02435 6.53562L 4.02435 36.5716L 8.46989e-06 36.5716L 8.46989e-06 -4.24364e-06Z"/>
<path id="path7_fill" d="M 12.2118 3.7545L 0 3.7545L 0 4.24364e-06L 28.7256 4.24364e-06L 28.7256 3.7545L 16.5137 3.7545L 16.5137 36.5716L 12.3506 36.5716L 12.3506 3.7545L 12.2118 3.7545Z"/>
<path id="path8_fill" d="M 45.7943 91.7767C 20.5381 91.7767 2.11747e-06 71.1965 2.11747e-06 45.8884C 2.11747e-06 20.5802 20.5381 0 45.7943 0C 56.4797 0 66.7487 3.7545 74.9362 10.4292L 72.2995 13.6275C 64.9447 7.50901 55.5083 4.17167 45.7943 4.17167C 22.8972 4.17167 4.16312 22.9442 4.16312 45.8884C 4.16312 68.8326 22.8972 87.6051 45.7943 87.6051C 62.8631 87.6051 78.1279 77.315 84.3726 61.6017L 48.8473 61.6017L 48.8473 57.43L 90.201 57.43L 89.3683 60.2111C 83.2624 79.1227 65.6385 91.7767 45.7943 91.7767Z"/>
<path id="path9_fill" d="M 42.4638 0L 8.46989e-06 0L 8.46989e-06 4.17167L 42.4638 4.17167L 42.4638 0Z"/>
</defs>
</svg>
